<?xml version="1.0" encoding="utf-8"?>
<!-- Generator: Adobe Illustrator 26.3.1, SVG Export Plug-In . SVG Version: 6.00 Build 0)  -->
<svg version="1.1" id="Capa_1" xmlns="http://www.w3.org/2000/svg" xmlns:xlink="http://www.w3.org/1999/xlink" x="0px" y="0px"
	 viewBox="0 0 100 100" style="enable-background:new 0 0 100 100;" xml:space="preserve">
<style type="text/css">
	.st0{fill:none;stroke:#EFEFEF;stroke-width:5;stroke-miterlimit:10;}
	.st1{fill:none;stroke:#F2A277;stroke-width:6;stroke-miterlimit:10;}
	.st2{fill:#EFEFEF;}
	.st3{fill:#F9F9F9;}
</style>
<path class="st0" d="M-671.15,116.08v-1.53c0-26.14-21.39-47.53-47.53-47.53h-12.47c-26.14,0-47.53,21.39-47.53,47.53v1.53H-671.15z
	"/>
<g>
	<path class="st0" d="M-754.78,116.08h-24.96c-6.28,0-11.43,5.14-11.43,11.43v3.29c0,6.28,5.14,11.43,11.43,11.43h47.85
		L-754.78,116.08z"/>
	<path class="st0" d="M-670.09,116.08h-24.96l-22.89,26.14h47.85c6.28,0,11.43-5.14,11.43-11.43v-3.29
		C-658.66,121.22-663.81,116.08-670.09,116.08z"/>
</g>
<g>
	<path class="st0" d="M-968.56,90.97v2.22c0,4.66,0.47,9.21,1.36,13.61h-4.41c-6.69,0-12.12,5.44-12.12,12.12v6.07
		c0,6.69,5.44,12.12,12.12,12.12h18.94c6.33,7.63,14.26,13.89,23.26,18.25v9.42h77.82v-9.42c23.12-11.18,39.16-34.9,39.16-62.19
		v-2.22H-968.56z M-971.61,128.42c-1.88,0-3.41-1.53-3.41-3.41v-6.07c0-1.88,1.53-3.41,3.41-3.41h6.79
		c1.56,4.53,3.57,8.85,5.99,12.9H-971.61z"/>
</g>
<path class="st1" d="M-963.89-14.87"/>
<g>
	<path class="st2" d="M-724.95,78.67c0-0.74-0.25-1.45-0.71-1.98c-0.53-0.62-1.3-0.96-2.17-0.96c-1.64,0-2.88,1.26-2.88,2.94
		c0,0.74,0.25,1.44,0.71,1.98c0.53,0.62,1.3,0.96,2.17,0.96C-726.18,81.61-724.95,80.34-724.95,78.67z"/>
	<path class="st2" d="M-695.2,91.25c-0.53-0.62-1.3-0.96-2.17-0.96c-1.64,0-2.88,1.26-2.88,2.94c0,0.74,0.25,1.45,0.71,1.98
		c0.53,0.62,1.3,0.96,2.17,0.96c1.64,0,2.88-1.26,2.88-2.94C-694.49,92.49-694.74,91.79-695.2,91.25z"/>
	<path class="st2" d="M-754.31,103.54c-1.64,0-2.88,1.26-2.88,2.94c0,0.74,0.25,1.45,0.71,1.98c0.53,0.62,1.3,0.96,2.17,0.96
		c1.64,0,2.88-1.26,2.88-2.94c0-0.74-0.25-1.45-0.71-1.98C-752.67,103.88-753.44,103.54-754.31,103.54z"/>
	<path class="st2" d="M-723.85,96.92c-1.64,0-2.88,1.26-2.88,2.94c0,0.74,0.25,1.45,0.71,1.98c0.53,0.62,1.3,0.96,2.17,0.96
		c1.64,0,2.88-1.26,2.88-2.94c0-0.74-0.25-1.45-0.71-1.98C-722.22,97.26-722.99,96.92-723.85,96.92z"/>
</g>
<g>
	<path class="st3" d="M-695.14,295.26c-0.9-1.17-1.57-1.88-2.05-2.7c-2.05-3.5-3.92-7.12-6.15-10.51c-0.63-0.96-2.44-2.01-3.35-1.75
		c-2.03,0.58-3.86,1.92-5.7,3.07c-0.17,0.11,0.03,1.14,0.31,1.59c3.18,5.14,6.22,10.39,9.69,15.33c1.94,2.75,5.15,3.26,8.04,1.6
		c2.03-1.17,4.12-2.69,5.41-4.58c2.76-4.02,5.21-8.29,7.45-12.64c3.3-6.42,6.3-13,9.46-19.5c0.57-1.18,0.71-2.04-0.85-2.43
		c-2.7-0.68-6.55,1.16-7.76,3.7c-2.28,4.8-4.5,9.62-6.89,14.36C-689.9,285.53-692.45,290.18-695.14,295.26z"/>
	<path class="st3" d="M-695.14,295.26c2.69-5.08,5.24-9.73,7.61-14.45c2.39-4.74,4.61-9.57,6.89-14.36c1.21-2.54,5.06-4.38,7.76-3.7
		c1.56,0.39,1.43,1.25,0.85,2.43c-3.16,6.5-6.15,13.08-9.46,19.5c-2.24,4.34-4.69,8.61-7.45,12.64c-1.3,1.89-3.38,3.41-5.41,4.58
		c-2.89,1.67-6.1,1.15-8.04-1.6c-3.48-4.94-6.51-10.18-9.69-15.33c-0.28-0.45-0.48-1.49-0.31-1.59c1.84-1.15,3.67-2.49,5.7-3.07
		c0.91-0.26,2.72,0.79,3.35,1.75c2.22,3.39,4.09,7.01,6.15,10.51C-696.71,293.38-696.03,294.09-695.14,295.26z"/>
</g>
<path class="st3" d="M-730.47,400.09l-20.69-20.69c2.7-3.94,4.29-8.7,4.29-13.83c0-13.5-10.98-24.48-24.48-24.48
	s-24.48,10.98-24.48,24.48s10.98,24.48,24.48,24.48c5.13,0,9.89-1.59,13.83-4.29l20.69,20.69c0.88,0.88,2.03,1.32,3.18,1.32
	s2.3-0.44,3.18-1.32C-728.72,404.7-728.72,401.85-730.47,400.09z M-771.35,381.06c-8.54,0-15.48-6.95-15.48-15.48
	s6.95-15.48,15.48-15.48c8.54,0,15.48,6.95,15.48,15.48S-762.82,381.06-771.35,381.06z"/>
<polygon class="st0" points="-717.94,142.23 -724.92,150.2 -731.89,142.23 -778.68,142.23 -778.68,157.16 -670.58,157.16 
	-670.58,142.23 "/>
<path class="st3" d="M-554.66,185.52v1.62c0,3.4,0.35,6.72,0.99,9.93h-3.22c-4.88,0-8.85,3.97-8.85,8.85v4.43
	c0,4.88,3.97,8.85,8.85,8.85h13.82c4.62,5.57,10.4,10.14,16.98,13.32v6.88h56.79v-6.88c16.87-8.16,28.58-25.47,28.58-45.38v-1.62
	H-554.66z M-556.89,212.84c-1.37,0-2.49-1.12-2.49-2.49v-4.43c0-1.37,1.12-2.49,2.49-2.49h4.96c1.14,3.3,2.61,6.46,4.37,9.41
	H-556.89z"/>
<path class="st3" d="M-38.63,339.48v1.22c0,2.55,0.26,5.05,0.75,7.46h-2.42c-3.66,0-6.65,2.98-6.65,6.65v3.33
	c0,3.66,2.98,6.65,6.65,6.65h10.38c3.47,4.18,7.81,7.61,12.75,10v5.17h42.65v-5.17c12.67-6.13,21.46-19.13,21.46-34.08v-1.22H-38.63
	z M-40.3,360.01c-1.03,0-1.87-0.84-1.87-1.87v-3.33c0-1.03,0.84-1.87,1.87-1.87h3.72c0.86,2.48,1.96,4.85,3.29,7.07H-40.3z"/>
<g>
	<path class="st3" d="M-619.7,303.29c-1.23,0-2.25-0.33-3.06-1c-0.81-0.66-1.27-1.49-1.39-2.49c-0.12-0.99,0.22-2,1.03-3.02
		l11.17-14.4v4.25l-10.8-13.94c-0.84-1.06-1.2-2.09-1.08-3.07c0.12-0.99,0.59-1.82,1.39-2.49c0.81-0.67,1.83-1,3.06-1
		c0.98,0,1.88,0.25,2.69,0.74c0.81,0.5,1.58,1.28,2.32,2.33l7.8,10.66h-3.11l7.9-10.66c0.77-1.09,1.54-1.88,2.32-2.36
		c0.77-0.48,1.67-0.72,2.68-0.72c1.27,0,2.29,0.33,3.08,0.98c0.79,0.65,1.25,1.47,1.37,2.46c0.12,0.99-0.24,2.04-1.08,3.13
		l-10.86,13.94v-4.25l11.17,14.4c0.84,1.03,1.2,2.04,1.08,3.02c-0.12,0.99-0.59,1.82-1.39,2.49c-0.81,0.67-1.84,1-3.11,1
		c-1.02,0-1.91-0.24-2.66-0.72c-0.75-0.48-1.54-1.26-2.34-2.36l-8.17-10.92h3.16l-8.12,10.92c-0.81,1.09-1.6,1.88-2.37,2.36
		C-617.78,303.05-618.68,303.29-619.7,303.29z"/>
</g>
<g>
	<path class="st3" d="M-531.45,92.79h-17c-2.76,0-5-2.24-5-5v-13c0-2.76,2.24-5,5-5h17c2.76,0,5,2.24,5,5v13
		C-526.45,90.56-528.69,92.79-531.45,92.79z"/>
	<g>
		<path d="M-543.66,83.04c-0.51,0-0.94-0.17-1.28-0.51c-0.34-0.34-0.51-0.75-0.51-1.24c0-0.51,0.17-0.93,0.51-1.26
			c0.34-0.33,0.76-0.49,1.28-0.49h7.46c0.49,0,0.9,0.16,1.24,0.49c0.34,0.33,0.51,0.75,0.51,1.26c0,0.49-0.17,0.9-0.51,1.24
			c-0.34,0.34-0.75,0.51-1.24,0.51H-543.66z"/>
	</g>
</g>
<g>
	<path class="st3" d="M-492.22,92.79h-17c-2.76,0-5-2.24-5-5v-13c0-2.76,2.24-5,5-5h17c2.76,0,5,2.24,5,5v13
		C-487.22,90.56-489.46,92.79-492.22,92.79z"/>
	<g>
		<path d="M-500.72,88.6c-0.43,0-0.75-0.12-0.99-0.36c-0.23-0.24-0.35-0.58-0.35-1v-4.76h-4.67c-0.41,0-0.73-0.11-0.96-0.33
			c-0.23-0.22-0.35-0.54-0.35-0.94c0-0.41,0.12-0.72,0.35-0.94c0.23-0.22,0.55-0.33,0.96-0.33h4.67v-4.61
			c0-0.43,0.12-0.75,0.35-0.99c0.23-0.23,0.57-0.35,1.01-0.35c0.43,0,0.75,0.12,0.97,0.35c0.22,0.23,0.33,0.56,0.33,0.99v4.61h4.67
			c0.42,0,0.75,0.11,0.97,0.33c0.22,0.22,0.33,0.54,0.33,0.94c0,0.41-0.11,0.72-0.33,0.94c-0.22,0.22-0.55,0.33-0.97,0.33h-4.67
			v4.76c0,0.43-0.11,0.76-0.33,1C-499.94,88.48-500.27,88.6-500.72,88.6z"/>
	</g>
</g>
<g>
	<path class="st3" d="M-44.31,66.53h-68.94c-8.28,0-15-6.72-15-15V-2.75c0-8.28,6.72-15,15-15h68.94c8.28,0,15,6.72,15,15v54.28
		C-29.31,59.81-36.02,66.53-44.31,66.53z"/>
	<g>
		<path d="M-78.78,54.77c-1.77,0-3.13-0.5-4.1-1.51c-0.96-1-1.45-2.39-1.45-4.16V29.33h-19.41c-1.69,0-3.02-0.46-3.98-1.39
			c-0.97-0.92-1.45-2.23-1.45-3.92c0-1.69,0.48-2.99,1.45-3.92c0.96-0.92,2.29-1.39,3.98-1.39h19.41V-0.45
			c0-1.77,0.48-3.13,1.45-4.1c0.97-0.97,2.37-1.45,4.22-1.45c1.77,0,3.11,0.48,4.04,1.45c0.93,0.96,1.39,2.33,1.39,4.1v19.17h19.41
			c1.77,0,3.11,0.46,4.04,1.39c0.92,0.93,1.38,2.23,1.38,3.92c0,1.69-0.46,3-1.38,3.92c-0.93,0.92-2.27,1.39-4.04,1.39h-19.41V49.1
			c0,1.77-0.46,3.15-1.39,4.16C-75.55,54.27-76.93,54.77-78.78,54.77z"/>
	</g>
</g>
<g>
	<path class="st3" d="M-70.28,153.73h-17c-2.76,0-5-2.24-5-5v-13c0-2.76,2.24-5,5-5h17c2.76,0,5,2.24,5,5v13
		C-65.28,151.49-67.52,153.73-70.28,153.73z"/>
	<g>
		<path d="M-78.78,149.53c-0.43,0-0.75-0.12-0.99-0.36c-0.23-0.24-0.35-0.58-0.35-1v-4.76h-4.67c-0.41,0-0.73-0.11-0.96-0.33
			c-0.23-0.22-0.35-0.54-0.35-0.94c0-0.41,0.12-0.72,0.35-0.94c0.23-0.22,0.55-0.33,0.96-0.33h4.67v-4.61
			c0-0.43,0.12-0.75,0.35-0.99c0.23-0.23,0.57-0.35,1.01-0.35c0.43,0,0.75,0.12,0.97,0.35c0.22,0.23,0.33,0.56,0.33,0.99v4.61h4.67
			c0.42,0,0.75,0.11,0.97,0.33c0.22,0.22,0.33,0.54,0.33,0.94c0,0.41-0.11,0.72-0.33,0.94c-0.22,0.22-0.55,0.33-0.97,0.33h-4.67
			v4.76c0,0.43-0.11,0.76-0.33,1C-78,149.41-78.33,149.53-78.78,149.53z"/>
	</g>
</g>
<g>
	<g>
		<path d="M-564.28-24.42c-0.3,0-0.53-0.08-0.68-0.25c-0.15-0.16-0.23-0.38-0.23-0.67v-7.07h-6.93c-0.28,0-0.5-0.08-0.67-0.23
			c-0.16-0.15-0.25-0.37-0.25-0.65c0-0.28,0.08-0.5,0.25-0.65c0.16-0.15,0.38-0.23,0.67-0.23h6.93v-6.86c0-0.28,0.08-0.5,0.23-0.67
			c0.15-0.16,0.38-0.25,0.68-0.25c0.3,0,0.53,0.08,0.68,0.25c0.15,0.16,0.23,0.38,0.23,0.67v6.86h6.93c0.3,0,0.53,0.08,0.68,0.23
			c0.15,0.15,0.23,0.37,0.23,0.65c0,0.3-0.08,0.52-0.23,0.67c-0.15,0.14-0.38,0.21-0.68,0.21h-6.93v7.07c0,0.28-0.08,0.5-0.23,0.67
			C-563.75-24.5-563.98-24.42-564.28-24.42z"/>
		<path d="M-549.3-36.25c-0.23-0.14-0.36-0.34-0.39-0.6c-0.02-0.26,0.06-0.54,0.25-0.84l2.52-4.02l0.28,0.38l-4.79,0.14
			c-0.35,0-0.63-0.08-0.84-0.23c-0.21-0.15-0.31-0.36-0.31-0.61c0-0.28,0.1-0.49,0.31-0.63c0.21-0.14,0.49-0.21,0.84-0.21l4.79,0.14
			l-0.28,0.39l-2.52-4.06c-0.19-0.3-0.26-0.58-0.23-0.84s0.17-0.46,0.4-0.6s0.47-0.15,0.7-0.02c0.23,0.13,0.43,0.34,0.59,0.65
			l2.21,4.06h-0.28l2.17-4.06c0.16-0.33,0.37-0.55,0.61-0.67c0.25-0.12,0.48-0.1,0.72,0.04c0.23,0.16,0.36,0.37,0.37,0.61
			c0.01,0.25-0.08,0.52-0.26,0.82l-2.48,4.06l-0.32-0.39l4.83-0.14c0.37,0,0.67,0.07,0.88,0.21c0.21,0.14,0.31,0.35,0.31,0.63
			c0,0.28-0.1,0.49-0.31,0.63s-0.5,0.21-0.88,0.21l-4.83-0.14l0.32-0.38l2.48,4.02c0.19,0.3,0.27,0.58,0.26,0.82
			c-0.01,0.24-0.13,0.44-0.37,0.58c-0.26,0.14-0.5,0.15-0.74,0.04c-0.23-0.12-0.43-0.33-0.59-0.63l-2.17-4.06h0.28l-2.24,4.09
			c-0.16,0.3-0.36,0.51-0.58,0.63S-549.04-36.11-549.3-36.25z"/>
	</g>
</g>
<g>
	<path class="st3" d="M-591.12,122.95c0-0.02,0-0.05,0.01-0.08c0.03-0.17,0.05-0.35,0.05-0.53c0-0.01,0-0.03,0-0.04
		c0-0.01,0-0.03,0-0.04c0-0.12-0.03-0.24-0.04-0.36c-0.01-0.09-0.01-0.18-0.03-0.27c-0.04-0.19-0.1-0.37-0.17-0.55
		c-0.01-0.02-0.01-0.05-0.02-0.07c-0.18-0.43-0.44-0.82-0.8-1.18l-10.47-10.47c-0.72-0.72-1.55-1.09-2.48-1.11
		c-0.94-0.02-1.76,0.34-2.48,1.06c-0.69,0.69-1.03,1.51-1.03,2.46c0,0.95,0.36,1.79,1.08,2.51l4.55,4.55h-25.39
		c-1.02,0-1.87,0.32-2.54,0.97c-0.67,0.65-1.01,1.48-1.01,2.5c0,0.97,0.34,1.8,1.01,2.47c0.67,0.67,1.52,1.01,2.54,1.01h25.45
		l-4.62,4.62c-0.69,0.69-1.04,1.5-1.06,2.43c-0.02,0.94,0.34,1.76,1.06,2.48c0.69,0.69,1.51,1.03,2.46,1.03
		c0.95,0,1.77-0.34,2.46-1.03l10.47-10.47C-591.58,124.28-591.24,123.65-591.12,122.95z"/>
	<path class="st3" d="M-566.77,92.56c-0.7-0.67-1.58-1.01-2.64-1.01h-20.44c-1.02,0-1.83,0.31-2.43,0.94c-0.6,0.63-0.9,1.4-0.9,2.33
		c0,0.93,0.3,1.7,0.9,2.33s1.41,0.94,2.43,0.94h17.42v48.44h-17.42c-1.02,0-1.83,0.31-2.43,0.94s-0.9,1.4-0.9,2.33
		c0,0.93,0.3,1.7,0.9,2.33s1.41,0.94,2.43,0.94h20.44c1.06,0,1.94-0.35,2.64-1.04c0.69-0.7,1.04-1.55,1.04-2.57V95.17
		C-565.73,94.1-566.08,93.23-566.77,92.56z"/>
</g>
<g>
	<path class="st3" d="M298.66,139.93c0.01-0.03,0-0.07,0.01-0.1c0.03-0.22,0.07-0.44,0.07-0.68c0-0.02,0-0.03,0-0.05
		c0-0.02,0-0.03,0-0.05c0-0.16-0.03-0.31-0.05-0.46c-0.01-0.11-0.02-0.23-0.04-0.35c-0.05-0.24-0.12-0.47-0.21-0.7
		c-0.01-0.03-0.02-0.06-0.03-0.09c-0.22-0.54-0.56-1.04-1.01-1.5l-13.31-13.31c-0.92-0.92-1.97-1.39-3.15-1.41
		c-1.19-0.02-2.24,0.43-3.16,1.34c-0.87,0.87-1.31,1.92-1.31,3.12c0,1.21,0.46,2.27,1.37,3.19l5.78,5.78h-32.29
		c-1.3,0-2.37,0.41-3.23,1.24c-0.86,0.83-1.28,1.89-1.28,3.18c0,1.24,0.43,2.28,1.28,3.14c0.85,0.86,1.93,1.28,3.23,1.28h32.36
		l-5.88,5.88c-0.88,0.88-1.32,1.91-1.34,3.09c-0.02,1.19,0.43,2.24,1.34,3.16c0.87,0.87,1.92,1.31,3.12,1.31
		c1.21,0,2.25-0.44,3.12-1.31l13.31-13.31C298.07,141.63,298.5,140.82,298.66,139.93z"/>
	<path class="st3" d="M329.61,101.28c-0.89-0.85-2-1.28-3.36-1.28h-25.99c-1.3,0-2.33,0.4-3.09,1.19c-0.77,0.8-1.15,1.78-1.15,2.96
		s0.38,2.16,1.15,2.96c0.77,0.8,1.8,1.19,3.09,1.19h22.15v61.6h-22.15c-1.3,0-2.33,0.4-3.09,1.19c-0.77,0.8-1.15,1.78-1.15,2.96
		c0,1.18,0.38,2.17,1.15,2.96c0.77,0.8,1.8,1.19,3.09,1.19h25.99c1.35,0,2.47-0.44,3.36-1.33c0.88-0.88,1.32-1.97,1.32-3.27V104.6
		C330.94,103.24,330.5,102.14,329.61,101.28z"/>
</g>
<g>
	<path class="st3" d="M195.25,1.64c-1.96-2.56-3.44-4.12-4.5-5.93c-4.5-7.69-8.6-15.63-13.48-23.06c-1.38-2.11-5.36-4.4-7.35-3.83
		c-4.46,1.27-8.47,4.21-12.5,6.73c-0.38,0.24,0.06,2.51,0.68,3.49c6.97,11.28,13.64,22.79,21.26,33.62
		c4.25,6.03,11.3,7.15,17.64,3.5c4.45-2.57,9.03-5.9,11.87-10.05c6.06-8.83,11.43-18.19,16.33-27.72
		c7.25-14.09,13.81-28.52,20.74-42.77c1.26-2.59,1.55-4.46-1.87-5.32c-5.92-1.48-14.36,2.54-17.01,8.12
		c-5,10.52-9.87,21.1-15.1,31.51C206.74-19.69,201.15-9.51,195.25,1.64z"/>
	<path class="st3" d="M195.25,1.64c5.9-11.15,11.49-21.33,16.7-31.7c5.23-10.4,10.11-20.99,15.1-31.51
		c2.65-5.58,11.09-9.61,17.01-8.12c3.42,0.86,3.13,2.73,1.87,5.32c-6.93,14.25-13.5,28.69-20.74,42.77
		c-4.9,9.53-10.28,18.89-16.33,27.72c-2.84,4.14-7.42,7.48-11.87,10.05c-6.34,3.65-13.39,2.53-17.64-3.5
		c-7.62-10.83-14.29-22.34-21.26-33.62c-0.61-0.99-1.05-3.26-0.68-3.49c4.03-2.52,8.04-5.46,12.5-6.73
		c1.99-0.57,5.97,1.72,7.35,3.83c4.88,7.43,8.98,15.38,13.48,23.06C191.81-2.48,193.29-0.91,195.25,1.64z"/>
</g>
<path class="st3" d="M271.05,299l-27.03-27.03c3.53-5.14,5.61-11.36,5.61-18.06c0-17.64-14.35-31.98-31.98-31.98
	s-31.98,14.35-31.98,31.98s14.35,31.98,31.98,31.98c6.7,0,12.92-2.07,18.06-5.61l27.03,27.03c1.15,1.15,2.65,1.72,4.16,1.72
	c1.5,0,3.01-0.57,4.16-1.72C273.34,305.02,273.34,301.3,271.05,299z M217.65,274.14c-11.15,0-20.23-9.07-20.23-20.23
	s9.07-20.23,20.23-20.23c11.15,0,20.23,9.07,20.23,20.23S228.8,274.14,217.65,274.14z"/>
<g>
	<path class="st3" d="M52.06,190.51c-0.33-18.55-15.52-33.55-34.15-33.55H9.4c-18.63,0-33.82,15-34.15,33.55
		c-4.79,0.49-8.54,4.54-8.54,9.46v2.25c0,4.91,3.74,8.97,8.53,9.46v10.25h77.23v-10.31c4.59-0.67,8.13-4.62,8.13-9.4v-2.25
		C60.6,195.06,56.85,191,52.06,190.51z M9.66,208.32L9.66,208.32l-12.64-14.44h33.26l-12.64,14.44l0,0l-3.99,4.56L9.66,208.32z
		 M9.4,160.38h8.51c16.73,0,30.39,13.44,30.74,30.09H33.27H-5.96h-15.38C-20.99,173.81-7.34,160.38,9.4,160.38z M49.05,218.51h-70.4
		v-6.78H8.12l5.54,6.33l5.54-6.33h29.86V218.51z"/>
	<path class="st3" d="M11.67,168.97c1.32,0,2.31-1.01,2.31-2.35c0-0.59-0.2-1.15-0.57-1.57c-0.43-0.5-1.05-0.77-1.74-0.77
		c-1.32,0-2.31,1.01-2.31,2.35c0,0.59,0.2,1.15,0.57,1.57C10.36,168.7,10.98,168.97,11.67,168.97z"/>
	<path class="st3" d="M32.47,178.92c1.32,0,2.31-1.01,2.31-2.35c0-0.59-0.2-1.15-0.57-1.57c-0.43-0.5-1.05-0.77-1.74-0.77
		c-1.32,0-2.31,1.01-2.31,2.35c0,0.59,0.2,1.15,0.57,1.57C31.15,178.64,31.77,178.92,32.47,178.92z"/>
	<path class="st3" d="M-2.63,182.25c0-0.59-0.2-1.15-0.57-1.57c-0.43-0.5-1.05-0.77-1.74-0.77c-1.32,0-2.31,1.01-2.31,2.35
		c0,0.59,0.2,1.15,0.57,1.57c0.43,0.5,1.05,0.77,1.74,0.77C-3.62,184.6-2.63,183.59-2.63,182.25z"/>
	<path class="st3" d="M12.07,181.09c0,0.59,0.2,1.15,0.57,1.57c0.43,0.5,1.05,0.77,1.74,0.77c1.32,0,2.31-1.01,2.31-2.35
		c0-0.59-0.2-1.15-0.57-1.57c-0.43-0.5-1.05-0.77-1.74-0.77C13.07,178.74,12.07,179.75,12.07,181.09z"/>
</g>
<path class="st3" d="M85.63,78.67L63.01,49.52l21.86-28.07c2-2.6,2.85-5.07,2.57-7.43c-0.3-2.35-1.38-4.3-3.26-5.84
	c-1.87-1.55-4.32-2.32-7.33-2.32c-2.41,0-4.54,0.56-6.38,1.7c-1.84,1.14-3.68,3-5.51,5.6L49.9,33.48L35.04,13.17
	c-1.75-2.51-3.59-4.36-5.5-5.54c-1.93-1.17-4.06-1.76-6.39-1.76c-2.92,0-5.34,0.79-7.27,2.38c-1.92,1.58-3.03,3.55-3.31,5.9
	c-0.3,2.35,0.56,4.79,2.56,7.3l21.75,28.05L14.25,78.67c-1.92,2.44-2.73,4.83-2.44,7.18c0.29,2.36,1.4,4.33,3.31,5.9
	c1.93,1.59,4.34,2.38,7.26,2.38c2.43,0,4.55-0.57,6.39-1.7c1.83-1.14,3.71-3,5.63-5.6l15.54-20.9l15.64,20.9
	c1.92,2.6,3.77,4.46,5.56,5.6c1.79,1.13,3.9,1.7,6.33,1.7c3.01,0,5.46-0.79,7.39-2.38c1.92-1.58,3.03-3.55,3.31-5.9
	C88.48,83.5,87.62,81.1,85.63,78.67z"/>
</svg>
