<?xml version="1.0" encoding="utf-8"?>
<!-- Generator: Adobe Illustrator 26.3.1, SVG Export Plug-In . SVG Version: 6.00 Build 0)  -->
<svg version="1.1" id="Capa_1" xmlns="http://www.w3.org/2000/svg" xmlns:xlink="http://www.w3.org/1999/xlink" x="0px" y="0px"
	 viewBox="0 0 1100 1100" style="enable-background:new 0 0 1100 1100;" xml:space="preserve">
<g>
	<path d="M409.2,697.55c0.17-8.66-2.34-13.86-9.16-13.89c-0.04,0-0.07,0-0.11,0c-9.67,0-20.05,4.31-28.82,9.56
		c-4.58,2.73-12.53,7.77-14.82,14.96c0.42,2.92,0.66,5.86,0.69,8.75c1.47,1.94,3.94,2.48,6.22,2.93c5.87,1.16,4.67,6.42,4.13,12.17
		c-1.43,15.26-5.54,23.18-5.21,29.83c0.39,7.72,6.01,11.74,15.99,12.15c0.44,0.02,0.88,0.03,1.33,0.03c12.99,0,26.58-7.52,36.58-9.8
		c0.23-0.05,0.44-0.08,0.63-0.08c3.88,0,1.16,10.04,11.13,10.04c0.21,0,0.42,0,0.63-0.01c13.92-0.56,38.72-6.42,40.96-19.96
		c0.4-2.43-1-3.23-3.38-3.23c-0.86,0-1.84,0.1-2.91,0.27c-0.68,0.11-1.3,0.16-1.86,0.16c-2.38,0-3.71-1.04-3.71-3.87
		c0-2.38,0.54-5.11,1.08-7.75c2.44-13.53,3.67-21.27,6.11-38.16c0.18-2.8,0.9-8.17,0.9-11.08c0-6.99-4.09-8.54-9.07-8.54
		c-0.44,0-0.89,0.01-1.35,0.03c-6.65,0.32-19.4,3.25-24.43,9.38c-9.25,16.29-5.1,36.65-12.04,53.89c-1.98,3.74-6.11,9.49-11.86,9.68
		c-0.07,0-0.13,0-0.2,0c-7.45,0-3.03-13.9-2.68-15.89C406.16,725.36,408.93,711.25,409.2,697.55z"/>
	<path d="M349.01,722.24c0.1-1.08,0.17-2.19,0.19-3.33c-0.79-1.8-1.32-4.01-1.32-6.73c0-1.55,0.18-3.03,0.48-4.44
		c-2.37-13.83-9.79-27.73-23.43-29.7c-0.81-0.12-1.61-0.17-2.38-0.17c-12.23,0-19.77,13.77-23.1,13.77c-0.07,0-0.14-0.01-0.21-0.02
		c-1.62-0.31-2.16-2.63-2.16-4.41c0-7.77,1.26-15.68,1.8-23.4c0.5-5.81,0.75-8.75,1.26-14.7c0.72-13.05,1.98-20.1-8.98-20.1
		c-7.73,0-23.77,4.78-31.08,7.28c-6.19,2.12-13.29,4.04-13.29,11.76c0,6.29,2.16,7.06,7.55,8.39c5.39,1.33,5.39,3.28,5.39,8.7
		c-0.01,15-1.93,30.52-4.49,45.29c-1.44,8.31-4.38,19.74-4.13,27.72c0.53,17.2,17.47,26,33.06,28.46c5.04,0.8,9.88,1.19,14.48,1.19
		C326.77,767.82,346.13,752.9,349.01,722.24z M293.86,753.44c-3.23-0.67-3.82-3.8-3.95-5.72c-0.67-10.1,5.67-36.14,13.65-37.08
		c0.06-0.01,0.12-0.01,0.18-0.01c3.05,0,4.67,9.49,4.85,13.37c0.17,3.59-3.3,29.58-13.45,29.58
		C294.72,753.57,294.29,753.53,293.86,753.44z"/>
	<path d="M529.19,674.62c0.08-0.02,0.16-0.03,0.24-0.03c1.37,0,2.85,2.68,3.36,3.6c2.33,3.5,4.34,5.42,8.03,5.42
		c1.15,0,2.47-0.19,4.01-0.58c12.22-3.07,17.61-15,17.61-25.81c0-10.08-6.45-17.98-16.31-17.98c-1.05,0-2.15,0.09-3.28,0.28
		c-16.71,2.78-16.17,21.34-21.38,22.44c-0.17,0.04-0.33,0.05-0.49,0.05c-4.77,0-1.09-16.96-10.05-16.96c-0.41,0-0.85,0.04-1.32,0.11
		c-5.75,0.92-11.68,4.46-16.53,8.2c-6.74,5.21-21.38,11.46-21.38,22.63c0,5.79,1.74,7.64,5.13,7.64c0.97,0,2.07-0.15,3.31-0.4
		c0.91-0.19,1.67-0.28,2.3-0.28c2.73,0,3.08,1.8,2.91,5.98c-0.66,15.98-6.75,31.95-7.55,47.08c-0.23,4.32,3.77,5.7,8.52,5.7
		c1.73,0,3.56-0.18,5.32-0.48c15.54-2.58,32.87-8.53,31.08-27.38c1.08-11.11,1.62-16.78,2.7-28.92
		C525.59,683.25,526.67,675.22,529.19,674.62z"/>
	<path d="M620.04,735.82c-1.56,0-3.17,0.15-4.81,0.45c-10.13,2.16-15.2,3.3-25.33,5.62c-1.97,0.39-5.86,1.35-9.27,1.35
		c-3.42,0-6.36-0.97-6.36-4.48c0-2.53,1.8-4.85,4.13-5.36c2.51-0.55,7.56,0.06,16.35-1.74c23.41-4.81,48.48-20.56,51.02-46.24
		c0.8-8.08-4.85-10.92-4.85-12.01c0-1.36,3.77-3.77,3.77-7.41c0-3.43-5.72-7.57-11.03-7.57c-0.34,0-0.67,0.02-1.01,0.05
		c-6.83,0.71-7.01,8.55-16.71,9.99c-3.05,0.45-6.11,0.64-9.16,0.83c-3.05,0.19-6.11,0.37-9.16,0.84
		c-22.49,3.47-50.31,18.3-50.48,44.25c-0.06,8.63,3.05,13.01,9.52,17.21c1.26,0.81,2.16,0.97,2.16,2.84c0,2.43-2.16,3.31-3.95,4.47
		c-7.01,4.6-13.11,11.64-13.11,19.98c0,9.26,6.65,11.23,6.65,13.72c0,2.69-5.34,4.83-5.03,11.53c0.53,11.38,11.8,17.06,23.6,19.67
		c7.96-3.52,16.31-5.39,24.81-5.43c0.1,0,0.19,0,0.29,0c5.26,0.01,10.33,1.16,14.95,3.31c17.72-7.05,30.87-22.83,30.84-43.99
		C637.85,742.16,630.06,735.82,620.04,735.82z M587.92,709.71c0.58-7.28,1.62-26.06,12.04-28.03c0.68-0.13,1.29-0.19,1.84-0.19
		c3.2,0,4.16,2.11,3.73,5.11c-0.95,6.66-1.98,26.36-11.86,28.55c-0.74,0.16-1.4,0.24-1.98,0.24
		C588.6,715.4,587.65,713.17,587.92,709.71z M583.07,789.17c-0.77,0.05-1.71,0.09-2.75,0.09c-6.3,0-16.47-1.35-16.47-8.94
		c0-1.03,0.04-3.56,1.44-3.87c0.42-0.09,1-0.13,1.72-0.13c2.7,0,7.4,0.51,13.01,0.51c5.25,0,11.3-0.45,17.25-2.17
		c0.4-0.14,0.81-0.21,1.19-0.21c1.51,0,2.76,1.09,2.76,3.51C601.22,786.42,587.38,788.88,583.07,789.17z"/>
	<path d="M820.06,680.17c-1.82-0.38-3.44-0.55-4.89-0.55c-11.23,0-11.82,10.3-15.88,10.3c-0.2,0-0.4-0.02-0.61-0.07
		c-5.75-1.36-0.9-13.84-11.86-15.47c-1.14-0.17-2.28-0.25-3.42-0.3c-1.2,4.54-3.13,8.91-5.69,12.67c-3.53,5.19-8.76,9.5-15.15,9.31
		c0,0.03,0,0.05,0,0.08c-1.45,18.74-7.09,38.71-7.54,57.59c-0.26,10.54,7.32,13.83,13.83,14.17c1.16,0.06,2.3,0.09,3.42,0.09
		c16.88,0,29.69-7,27.66-26.54c1.08-13.5,1.62-21.96,2.7-31.53c0.17-1.24,1.13-6.68,3.34-6.68c0.14,0,0.28,0.02,0.43,0.07
		c1.44,0.44,3.05,3.76,3.59,4.88c3.05,5.56,5.57,8.75,12.04,11.44c2.65,1.1,4.98,1.6,7,1.6c7.3,0,10.61-6.56,10.61-15.14
		C839.64,694.74,831.73,682.62,820.06,680.17z"/>
	<path d="M744.02,705.32c0-4.7-3.41-10.08-7.19-10.35c-0.09-0.01-0.18-0.01-0.28-0.01c-5.74,0-15.41,12.16-28.01,12.16
		c-0.09,0-0.19,0-0.28,0c-4.49-0.06-10.96-3.86-10.96-10.46c0-4.78,4.58-4.72,7.01-4.82c11.31-0.46,27.77-8.58,37.21-19.21
		c-1.12-5.43-1.27-11.09-0.92-16.56c0.2-3.24,0.62-6.46,1.06-9.68c-4.91-2.67-11.79-4.1-19.02-4.38c-1.14-0.04-2.27-0.07-3.4-0.07
		c-12.6,0-24.85,2.72-35.3,8.03c1.96,14.28,4.93,28.42,7.81,42.54c0.98,4.82,1.73,9.75,2.97,14.51c1.09,4.15,2.38,8.24,3.38,12.42
		c1.52,6.33,2.38,13.07,0.71,19.3c9.12-0.93,17.46-4.24,25.81-9.18C731.96,725.22,744.02,717.78,744.02,705.32z M709.24,653
		C709.24,653,709.24,653,709.24,653c0.04,0,0.07,0,0.11,0c2.87,0.05,3.97,2.31,4.13,3.94c0.59,6.04-8.26,16.88-13.3,17.06
		c-0.04,0-0.09,0-0.13,0c-2.41,0-3.1-2.48-3.1-4.19C696.96,665.18,701.94,653,709.24,653z"/>
	<path d="M397.93,914.96c-5.17-3.75-6.19-6.84-7.2-12.54c-3.04-34.82,0.78-69.77,10.37-104.84c1.25-6.59,0.8-9.86-5.17-9.72
		c-7.88,0.2-19.19,9.72-24.52,9.82c-0.01,0-0.04,0-0.05,0c-4.19,0.04-6.58-7.15-16.4-6.86c-0.27,0.01-0.55,0.02-0.84,0.04
		c-32.19,2.43-65.87,36.2-64.94,64.72c0.02,14.35,11.83,28.59,28.26,31.46c1.78,0.31,3.45,0.46,5.02,0.49
		c16.03,0.32,21.51-13.31,25.84-13.29c0.07,0,0.14,0.01,0.2,0.01c5.01,0.65,2.05,21.72,2.2,23.33c-0.45,4.72-0.63,6.19-4.95,6.46
		c-3.78,0.24-7.02,1.82-5.34,5.77c5.71,12.86,31.65,18.91,44.95,21.36c2.27,0.41,5.96,1.02,9.62,1.13
		c6.67,0.21,13.23-1.21,11.58-8.27C405.56,919.69,401.04,917.21,397.93,914.96z M360.17,818.22c-3.1,14.64-13.23,42.52-24.5,44.43
		c-0.12,0.02-0.23,0.03-0.35,0.03c-2.66-0.02-4.73-5.24-4.62-8.15c-0.23-13.33,11.97-40.89,25.6-43.37
		c0.15-0.03,0.31-0.04,0.45-0.05C359.37,811.06,360.72,814.98,360.17,818.22z"/>
	<path d="M512.73,851.56c-3.57-0.02-5.7-1.6-5.65-6.6c0.04-3.4,0.65-7.07,1.27-10.5c2.4-14.74,5.1-29.45,7.99-44.13
		c0.35-2.96,1.41-8.45,1.62-11.41c0.49-6.97-3.06-9.21-7.68-9.16c-0.51,0.01-1.04,0.04-1.57,0.1c-6.36,0.56-19.05,5.06-24.75,11.72
		c-11.92,18.27-10.59,40.5-16.42,59.58c-2.19,5.68-6.42,15.25-12.26,16.17c-0.21,0.03-0.41,0.05-0.61,0.05
		c-7.18-0.01-2.51-21.33-1.86-24.17c2.71-13.95,6.89-28.45,8.92-41.94c1.06-6.98-0.14-10.91-4.97-10.83
		c-0.72,0.01-1.52,0.11-2.41,0.31c-9.71,2.13-20.87,8-30.52,13.8c-5.89,3.68-17,9.99-18.11,18.23c-0.7,5.43,3.3,6.09,6.82,6.43
		c5.85,0.53,4.21,5.56,3.22,11.03c-2.64,14.32-6.52,29.46-5.52,43.65c0.94,13.13,8.12,21.78,17.5,21.91c0.19,0,0.38,0,0.57,0
		c15.58-0.46,25.79-19.05,36.62-23.58c0.19-0.08,0.37-0.12,0.54-0.12c3.52,0.01,2.43,18.18,11.45,18.24c0.45,0,0.93-0.04,1.44-0.14
		c12.14-2.77,32.09-11.75,38.66-24.65c0.6-2.21,1.29-4.42,2.05-6.6c0.05-0.41,0.09-0.83,0.1-1.25
		C519.39,851.83,516.85,851.59,512.73,851.56z"/>
	<path d="M679.29,845.39c23.86-1.05,44.18-25.39,40.64-47.37c-2.3-15.07-16.73-25.15-30.21-25.48c-0.08,0-0.17,0-0.25,0
		c-36.28-0.61-58.79,40.69-62.09,76.68c-1.54,22.97,14.77,40.28,36.59,40.1c1.04-0.01,2.1-0.05,3.17-0.14
		c11.37-0.93,21.72-4.96,32.22-11.23c7.72-4.65,20.54-12.75,20.56-23.89c0.01-4.1-3.41-8.4-7.14-8.41c-0.09,0-0.19,0-0.29,0.01
		c-5.78,0.33-15.82,13.2-29.11,13.98c-0.17,0.01-0.35,0.01-0.53,0.02c-4.55,0.01-10.61-3.16-10.65-9.31
		C672.15,845.69,676.73,845.49,679.29,845.39z M670.74,821.46c-0.29-7.06,2.5-27.58,9.57-27.57c0.02,0,0.03,0,0.05,0
		c2.8,0.04,4.42,3.94,4.94,6.73c2.08,10.35-5.71,26.76-10.9,26.92c-0.03,0-0.06,0-0.09,0C671.83,827.53,670.92,824.07,670.74,821.46
		z"/>
	<path d="M831.04,863.37c1.42-14.37,5.99-29.39,3.54-43.75c-1.77-10.11-13.85-16.75-23.4-17.02c-0.32-0.01-0.64-0.01-0.96,0
		c-13.57,0.23-20.95,13.95-31.3,16.33c-0.12,0.03-0.23,0.04-0.33,0.04c-3.55-0.06-3.73-16.86-14.44-17.1c-0.01,0-0.03,0-0.04,0
		c-8.52-0.17-23.75,5.61-30.65,10.77c-3.61,2.46-8.31,6.65-7.78,12.47c0.37,4.06,1.92,6.5,5.39,6.52c0.08,0,0.16,0,0.25,0
		c0.73-0.02,1.1-0.03,1.82-0.05c0.09,0,0.19,0,0.28,0c3.61,0.03,5.03,2.42,5.25,6.41c1.11,20.11-7.14,40.19-10.63,59.55
		c-1.33,7.25,2.9,9.48,8.12,9.37c1.09-0.02,2.22-0.15,3.35-0.35c19.27-3.49,30.45-13,33.55-31.9c2.51-12.48,3.35-39.78,16.83-41.91
		c0.22-0.03,0.44-0.05,0.66-0.05c2.65,0.03,4.71,2.72,4.93,5.82c-0.45,6.68-0.79,10.04-1.7,16.77c-1.51,9.85-5.9,22.47-7.5,32.11
		c-1.19,7.34,1.87,11,7.8,10.86c0.94-0.02,1.95-0.14,3.03-0.35c13.99-2.82,38.63-13.38,41.89-26.4
		C840.35,865.71,830.3,870.08,831.04,863.37z"/>
	<path d="M573.87,883.46c24.4-0.04,45.18-26.93,45.37-49.54c0.12-15.59-12.09-27.07-26.95-27.11c-0.08,0-0.15,0-0.23,0
		c-38.6,0.23-68,42.46-69.69,78.34c-0.94,24.05,18.12,43.33,40.35,43.35c0.1,0,0.19,0,0.29,0c10.88-0.08,20.5-3.55,30.48-9.54
		c7.32-4.42,19.73-12.42,20.24-24.48c0.18-4.52-3.09-9.4-6.88-9.39c-0.03,0-0.05,0-0.08,0c-5.84,0.12-16.12,13.37-29.05,13.49
		c-0.02,0-0.04,0-0.06,0c-4.49,0.01-10.91-3.64-10.92-10.28C566.77,883.48,571.33,883.46,573.87,883.46z M566.42,858.22
		c0.01-7.35,5.13-28.71,12.58-28.72c0,0,0,0,0.01,0c2.91,0,4.06,4.14,4.24,7.1c0.7,10.94-8.4,28.03-13.53,28.04c0,0,0,0-0.01,0
		C567.15,864.65,566.42,860.97,566.42,858.22z"/>
	<path d="M874.57,357.26c-1.35-1.09-2.72-2.22-4.06-3.36c-1.41-1.34-3.19-2.61-4.91-3.51l-0.04-0.02
		c-32.78-16.75-62.62-38.51-86.31-62.93c-11.34-11.64-21.81-24.26-31.12-37.52c-6.03-8.58-11.43-17.24-16.64-25.62
		c-2.3-3.69-4.47-7.18-6.66-10.61c-12.43-19.72-27.87-41.31-53.91-47.77c-20.89-5.18-43.98-0.42-70.55,14.54
		c-1.16,0.64-2.3,1.29-3.44,1.93c-4.94,2.77-9.6,5.39-14.62,7.74c-5.84,2.73-11.64,5.64-17.27,8.66
		c-16.21,8.71-37.83-0.49-54.86-9.49c-2.24-1.24-4.53-2.54-6.76-3.8c-18.4-10.42-37.42-21.19-60.83-21.34c-0.21,0-0.42,0-0.64,0
		c-23.6,0-43.94,11.65-60.47,34.64c-6.06,8.28-11.75,17.37-17.77,26.99c-9.27,14.82-18.86,30.13-31.22,44.86
		c-21.65,26.13-49.15,49.6-79.53,67.88c-7.52,4.55-15.54,8.98-23.82,13.19l-0.03,0.02c-1.85,0.95-3.69,2.43-4.4,3.02
		c-2.11,1.76-3.57,3.38-3.88,5.57c-0.26,1.82,0.37,3.65,1.71,4.92c9,8.56,22.03,7.12,33.89,5.68c9.5,17.27,6.28,53.72,9.58,81
		c3.18,26.4,11.12,48.97,23.6,69.29c12.56,20.34,29.78,38.38,51.38,52.78c23.4,15.59,51.84,25.87,83.35,31.46
		c33.97,6.05,70.85,7.05,107.74,7.4c2.13,0.02,4.27,0.03,6.4,0.05c0.25,0.11,0.51,0.16,0.79,0.16c2.71-0.03,5.41-0.06,8.11-0.09
		c0.14,0,0.28,0,0.42,0c0.02,0,0.04,0,0.06,0c2.71,0.01,5.41,0.04,8.11,0.05c0.2,0,0.4-0.03,0.6-0.1
		c29.07-0.13,58.18-1.09,85.93-4.02c5.96-0.63,11.87-1.38,17.7-2.26c1.93,31.29-3.66,63.79-9.72,94.24
		c-2.48,12.48-11.85,29.51-3.12,41.07c5.07,6.72,13.55,10.8,22.42,10.81c8.51,0,16.86-4.24,22.09-10.4
		c0.01-0.02,0.02-0.04,0.03-0.06c1.11-1.8,1.84-3.69,2.29-5.63c0.05-0.2,0.1-0.39,0.14-0.59c0.06-0.31,0.11-0.61,0.16-0.92
		c0.03-0.21,0.07-0.43,0.1-0.64c0.04-0.3,0.07-0.61,0.1-0.91c0.02-0.22,0.04-0.44,0.05-0.67c0.02-0.3,0.03-0.61,0.04-0.92
		c0.01-0.22,0.01-0.45,0.01-0.67c0-0.31,0-0.61-0.01-0.92c-0.01-0.23-0.02-0.45-0.03-0.68c-0.02-0.31-0.03-0.61-0.05-0.92
		c-0.02-0.22-0.04-0.44-0.06-0.65c-0.06-0.62-0.13-1.25-0.22-1.87c-0.03-0.19-0.05-0.38-0.08-0.58c-0.05-0.29-0.1-0.59-0.15-0.88
		c-0.04-0.25-0.09-0.5-0.13-0.75c-0.05-0.28-0.11-0.56-0.17-0.84c-0.05-0.26-0.11-0.52-0.16-0.78c-0.06-0.27-0.12-0.54-0.18-0.81
		c-0.06-0.27-0.13-0.55-0.19-0.82c-0.06-0.26-0.12-0.51-0.19-0.76c-0.07-0.29-0.15-0.58-0.22-0.87c-0.06-0.23-0.12-0.46-0.18-0.7
		c-0.09-0.33-0.18-0.66-0.27-0.99c-0.05-0.18-0.1-0.37-0.15-0.55c-0.14-0.5-0.28-1-0.42-1.5c-1.2-4.27-2.31-8.49-3.18-12.84
		c-0.98-4.91-1.99-9.81-2.99-14.72c-1.96-9.59-3.88-19.19-5.45-28.86c-0.35-2.16-0.68-4.32-0.99-6.49c0,0,0,0,0,0
		c-2.31-16.23-3.38-32.63-1.86-48.97c21.13-4.3,40.98-10.6,58.54-19.66c5.94-3.06,11.61-6.37,17.02-9.92
		c0.97,7.28,1.27,14.64,1.04,21.95c-0.45,14.4-3.33,28.01-6.2,41.76c-0.24,1.8-0.48,3.6-0.73,5.4c-0.64,4.72-1.36,9.44-1.58,14.2
		c-0.33,7.13,0.15,14.64,3.02,21.27c0.38,0.88,0.82,1.72,1.28,2.55c0,0-0.01,0.01-0.01,0.01c0.07,0.12,0.15,0.24,0.22,0.36
		c0.07,0.12,0.13,0.24,0.2,0.35c0.01,0.01,0.02,0.01,0.03,0.02c1.2,1.97,2.64,3.79,4.38,5.34c1.3,1.17,2.75,2.17,4.33,2.92
		c0.49,0.23,1.31,0.52,2.03,0.7c0.86,0.21,0.85,0.21,1.61,0.24c2.44,0.1,4.63-0.75,6.64-2.34c2.27-1.8,4.08-4.25,5.58-6.91
		c1.24-2.21,2.25-4.59,3.05-7.03c0.05-0.13,0.09-0.26,0.13-0.39c0.03-0.09,0.06-0.17,0.09-0.26c0,0,0,0-0.01,0
		c0.07-0.24,0.15-0.47,0.22-0.71c0.01-0.02,0.01-0.04,0.02-0.06c2.75-9.88-0.56-23.8-1.06-32.44c-1.44-24.91,1.51-50.19,5.55-74.49
		c1.25-7.54,2.95-15.05,5.12-22.44c2.19-2.44,4.32-4.93,6.35-7.47c15.16-19.01,25.8-40.48,31.62-65.1
		c2.92-12.38,4.41-25.7,5.09-39.88c0.75-15.65,1.3-31.62,3.91-44.65c1.05-5.26,2.46-9.96,4.4-13.68c5.46-0.25,10.92-0.44,16.37-0.44
		c4.49,0,8.48-0.34,11.85-1.05l0.09-0.02c3.2-0.73,5.96-1.9,8.21-3.49c1.49-1.05,2.39-2.71,2.44-4.54
		C878.41,360.74,876.36,358.7,874.57,357.26z M758.96,311.43c1.76-2.33,4.45-3.56,7.17-3.56c1.89,0,3.79,0.59,5.41,1.82
		c3.66,2.77,6.79,14.25,7.14,15.55c0.09,0.34,0.02,0.7-0.19,0.98c-0.21,0.28-0.54,0.45-0.89,0.45c-0.15,0-0.44,0.01-0.83,0.01
		c-3.09,0-12.82-0.2-16.07-2.66C756.75,321.03,755.97,315.38,758.96,311.43z M717.54,290.56c-3,3.47-14.66,5.85-15.98,6.11
		c-0.07,0.01-0.15,0.02-0.22,0.02c-0.27,0-0.54-0.1-0.75-0.28c-0.27-0.23-0.41-0.57-0.39-0.92c0.07-1.34,0.74-13.22,3.75-16.69
		c1.77-2.05,4.28-3.1,6.8-3.1c2.08,0,4.18,0.72,5.87,2.19C720.37,281.13,720.78,286.82,717.54,290.56z M695.66,225.2
		c1.66-1.36,3.67-2.02,5.67-2.02c2.61,0,5.2,1.13,6.97,3.3c2.9,3.56,3.24,15.45,3.27,16.79c0.01,0.35-0.15,0.69-0.42,0.91
		c-0.21,0.17-0.46,0.26-0.72,0.26c-0.08,0-0.17-0.01-0.25-0.03c-1.31-0.3-12.89-3.01-15.8-6.57
		C691.25,234.01,691.82,228.34,695.66,225.2z M666.06,248.59c0.05-0.01,0.1-0.01,0.15-0.01c0.3,0,0.58,0.12,0.8,0.33
		c0.25,0.25,0.37,0.59,0.33,0.94c-0.15,1.34-1.57,13.15-4.79,16.42c-1.76,1.79-4.08,2.69-6.41,2.69c-2.27,0-4.55-0.85-6.29-2.57
		c-3.54-3.47-3.59-9.17-0.12-12.71C652.95,250.41,664.73,248.76,666.06,248.59z M634.26,207.79c1.5-3.32,4.78-5.28,8.2-5.28
		c1.24,0,2.49,0.26,3.69,0.8c4.51,2.04,6.53,7.37,4.48,11.89c-1.89,4.18-12.39,9.78-13.58,10.41c-0.17,0.09-0.35,0.13-0.53,0.13
		c-0.16,0-0.32-0.03-0.47-0.1c-0.32-0.14-0.56-0.43-0.64-0.77C635.1,223.55,632.37,211.97,634.26,207.79z M593.02,246.57
		c0.57-0.16,1.24-0.24,1.99-0.24c5.1,0,13.66,3.35,14.75,3.78c0.33,0.13,0.57,0.4,0.67,0.74c0.1,0.34,0.04,0.7-0.17,0.99
		c-0.79,1.09-7.8,10.7-12.21,11.98c-0.84,0.24-1.68,0.36-2.51,0.36c-3.89,0-7.49-2.55-8.63-6.47
		C585.52,252.95,588.27,247.96,593.02,246.57z M539.87,226.68c1.77-2.18,4.36-3.3,6.97-3.3c2,0,4,0.66,5.67,2.02
		c3.56,2.9,6.28,14.48,6.58,15.79c0.08,0.34-0.01,0.7-0.23,0.97c-0.22,0.27-0.54,0.42-0.88,0.42c-0.01,0-0.02,0-0.02,0
		c-1.34-0.03-13.24-0.36-16.8-3.26C537.32,236.19,536.74,230.52,539.87,226.68z M521.54,283.82c2.36-3.94,13.43-8.29,14.69-8.77
		c0.13-0.05,0.27-0.08,0.41-0.08c0.2,0,0.41,0.05,0.59,0.16c0.3,0.18,0.5,0.49,0.55,0.84c0.16,1.33,1.54,13.15-0.82,17.09
		c-1.68,2.8-4.66,4.36-7.72,4.36c-1.57,0-3.16-0.41-4.61-1.28C520.38,293.6,518.99,288.07,521.54,283.82z M487.95,250.85
		c0.1-0.34,0.35-0.61,0.67-0.74c1.09-0.43,9.65-3.78,14.75-3.78c0.75,0,1.43,0.07,1.99,0.24c4.76,1.39,7.5,6.38,6.11,11.14
		c-1.14,3.92-4.74,6.47-8.63,6.47c-0.83,0-1.67-0.12-2.51-0.36c-4.41-1.29-11.43-10.89-12.21-11.98
		C487.92,251.55,487.85,251.19,487.95,250.85z M455.92,202.51c3.42,0,6.7,1.97,8.2,5.28c1.89,4.18-0.84,15.76-1.16,17.07
		c-0.08,0.34-0.32,0.62-0.64,0.77c-0.15,0.07-0.31,0.1-0.47,0.1c-0.18,0-0.36-0.04-0.53-0.13c-1.19-0.62-11.69-6.22-13.58-10.41
		c-2.04-4.51-0.03-9.85,4.48-11.89C453.43,202.76,454.69,202.51,455.92,202.51z M448.53,266.39c-1.75,1.71-4.02,2.57-6.29,2.57
		c-2.33,0-4.66-0.9-6.41-2.69c-3.22-3.28-4.64-15.09-4.79-16.42c-0.04-0.35,0.08-0.7,0.33-0.94c0.21-0.21,0.5-0.33,0.8-0.33
		c0.05,0,0.1,0,0.15,0.01c1.33,0.18,13.11,1.82,16.33,5.1C452.12,257.22,452.07,262.92,448.53,266.39z M391.24,210.18
		c2.11-4.91,4.94-9.42,8.31-13.56c11.85-14.52,30.75-23.36,49.54-22.41c3.21,0.16,3.22,5.16,0,5c-4.89-0.25-9.77,0.17-14.54,1.28
		c-17.11,3.98-32.04,16-38.99,32.21c-0.54,1.25-2.37,1.51-3.42,0.9C390.87,212.86,390.71,211.42,391.24,210.18z M390.08,226.48
		c1.77-2.17,4.36-3.3,6.97-3.3c2,0,4.01,0.66,5.67,2.02c3.84,3.13,4.41,8.8,1.28,12.64c-2.9,3.56-14.49,6.27-15.8,6.57
		c-0.08,0.02-0.17,0.03-0.25,0.03c-0.26,0-0.52-0.09-0.72-0.26c-0.27-0.22-0.43-0.56-0.42-0.91
		C386.84,241.93,387.18,230.04,390.08,226.48z M381.76,277.89c1.7-1.47,3.79-2.19,5.87-2.19c2.52,0,5.03,1.05,6.8,3.1
		c3,3.47,3.68,15.35,3.75,16.69c0.02,0.35-0.13,0.69-0.39,0.92c-0.21,0.18-0.47,0.28-0.75,0.28c-0.07,0-0.15-0.01-0.22-0.02
		c-1.32-0.26-12.97-2.64-15.98-6.11C377.6,286.82,378.01,281.13,381.76,277.89z M433.88,314.3c9.67-2.79,19.92-3.67,32.27-2.76
		c8.59,0.63,17.05,2,26.01,3.44c2.47,0.4,4.96,0.8,7.46,1.18c11.9,1.84,24.21,3.1,36.59,3.75c26.25,1.34,50.69,0.4,72.64-2.81
		c2.4-0.35,4.82-0.73,7.15-1.09c19.22-2.99,37.38-5.81,57.03,3.12c9.41,4.26,19.06,10.68,29.27,17.47c2.69,1.79,5.46,3.63,8.25,5.45
		c12.08,7.91,24.69,15.41,37.99,21.18c-15.96,2.85-31.98,5.34-48.05,7.43c-30.79,4.01-61.76,6.65-92.78,7.94
		c-31.2,1.3-62.45,1.23-93.64-0.21c-31.09-1.44-62.12-4.21-92.96-8.4c-22.77-3.09-45.43-6.93-67.95-11.51
		C380.58,345.13,403.61,323.04,433.88,314.3z M408.64,373.25c30.93,4.53,62.06,7.71,93.28,9.51c31.47,1.81,63.02,2.23,94.53,1.25
		c31.34-0.97,62.64-3.33,93.77-7.07c22.44-2.7,44.79-6.11,67.01-10.24c2.09,0.76,4.2,1.47,6.33,2.13c-0.31,0.21-0.61,0.41-0.92,0.62
		c7.04,2.88,14.02,6.31,21.05,9.2c-1.78,3.21-3.2,6.66-4.5,10.15c-1.51,4.07-2.94,8.28-4.84,12.21c-0.14,0.28-0.28,0.56-0.42,0.84
		c-0.1,0.2-0.2,0.39-0.3,0.59c-1.56,2.93-3.44,5.67-5.84,8.03c-0.18,0.17-0.36,0.35-0.54,0.52c-0.27,0.25-0.55,0.5-0.83,0.75
		c-0.19,0.17-0.38,0.33-0.57,0.49c-0.32,0.27-0.65,0.53-0.98,0.78c-0.15,0.12-0.3,0.23-0.46,0.35c-0.4,0.3-0.81,0.59-1.23,0.87
		c-0.1,0.06-0.19,0.13-0.29,0.19c-0.45,0.3-0.92,0.58-1.39,0.86c-0.09,0.05-0.18,0.11-0.27,0.16c-0.38,0.22-0.78,0.43-1.17,0.64
		c-5.52,2.88-11.82,4.15-18.13,3.31c-5.43-0.72-10.64-2.69-15.76-4.57c-5.33-1.95-10.69-3.8-16.15-5.34
		c-5.04-1.43-10.19-2.61-15.39-3.45c-0.72-0.21-1.55-0.27-2.27-0.34c-2.61-0.37-5.24-0.64-7.87-0.81c-1.11-0.07-2.21-0.12-3.32-0.15
		c-0.39-0.01-0.78-0.01-1.16-0.01c-0.92-0.01-1.83-0.01-2.75,0.01c-0.23,0-0.46,0-0.68,0c-0.49,0.01-0.99,0.04-1.48,0.06
		c-0.06,0-0.12,0-0.18,0.01c-9.96,0.46-20.08,2.62-28.83,7.53c-7.21,4.05-13.12,10.19-20.42,13.93c-0.26,0.13-0.51,0.27-0.77,0.39
		c-0.19,0.09-0.38,0.17-0.56,0.26c-0.49,0.22-0.98,0.44-1.48,0.64c-0.14,0.06-0.28,0.1-0.42,0.16c-0.51,0.2-1.03,0.38-1.56,0.55
		c-0.45,0.14-0.89,0.29-1.35,0.41c-4.43,1.16-9.21,1.14-13.43-0.78c-3.47-1.57-6.23-4.13-8.81-6.88c-2.66-2.82-5.12-5.84-7.97-8.48
		c-3.3-3.06-7.04-5.45-11.32-6.89c-9.67-3.27-20.42-1.77-30.17,0.3c-2.46,0.52-4.91,1.11-7.36,1.72c-3.12,0.78-1.8,5.6,1.33,4.82
		c9.52-2.38,19.86-4.88,29.71-3.28c0.39,0.06,0.77,0.14,1.16,0.22c-4.4,2.6-7.38,6.91-10.25,11.18c-1.6,2.38-3.19,4.74-5.23,6.77
		c-2.43,2.42-5.18,4.45-8.18,6.1c-6.26,3.45-13.16,4.78-20.25,4.13c-7.09-0.65-13.91-2.85-20.77-4.63
		c-6.27-1.62-12.56-2.73-18.95-2.57c3.09-3.96,6.04-8.09,9.97-11.2c4.66-3.69,12.01-6.02,17.71-3.4c1.23,0.56,2.69,0.35,3.42-0.9
		c0.63-1.08,0.34-2.85-0.9-3.42c-5.99-2.75-12.84-1.92-18.67,0.86c-5.91,2.82-9.95,8.03-13.85,13.07
		c-3.74,4.83-7.86,9.48-12.85,13.06c-5.33,3.82-11.47,6.45-18,7.3c-6.21,0.81-12.61-0.04-18.11-3.13
		c-4.81-2.7-8.63-6.79-11.94-11.14c-0.6-0.78-1.18-1.57-1.76-2.37c-0.01-0.02-0.02-0.05-0.04-0.07c-0.02-0.03-0.04-0.04-0.06-0.07
		c-2.84-3.9-5.54-7.89-8.67-11.58c-4.18-4.93-9.06-9.35-14.73-12.5c-3.59-1.99-7.46-3.42-11.46-4.27c-0.45-0.26-0.97-0.35-1.49-0.29
		c-2.2-0.39-4.44-0.62-6.69-0.65c-6.35-0.08-13.13,1.31-18.25,5.25c-1.07,0.82-1.64,2.15-0.9,3.42c0.61,1.05,2.34,1.73,3.42,0.9
		c5.56-4.28,13.08-5.34,20.21-4.31c-0.45,2.97-4.19,5.28-6.56,6.4c-3.61,1.71-7.77,2.15-11.72,1.76c-0.14-0.02-0.29-0.04-0.44-0.06
		c-0.32-0.04-0.64-0.09-0.96-0.14c-1.85-0.31-3.68-0.82-5.45-1.42c-3.28-1.12-6.35-2.76-9.17-4.75c-0.6-0.43-1.18-0.88-1.76-1.34
		c-1.74-1.42-3.35-2.94-4.86-4.56c-0.1-0.11-0.21-0.22-0.31-0.34c-0.34-0.37-0.68-0.75-1.01-1.13c-0.36-0.41-0.71-0.83-1.06-1.25
		c-0.07-0.08-0.14-0.16-0.2-0.25c-1.58-1.95-3.04-3.99-4.43-6.05c-2.9-4.32-5.52-8.82-8.19-13.28c-0.68-1.14-1.36-2.28-2.05-3.41
		c-0.26-0.42-0.52-0.83-0.77-1.24c-0.02-0.03-0.04-0.06-0.06-0.09c-0.43-0.69-0.87-1.38-1.31-2.06c-0.07-0.82-0.13-1.65-0.19-2.47
		c-0.28-0.2-0.59-0.39-0.97-0.63c-0.25-0.15-0.48-0.31-0.71-0.47c7.84-1.21,15.17-3.4,22.16-6.25
		C366.36,366.37,387.45,370.15,408.64,373.25z M607.19,475.07c1.23,7.77,3.82,15.23,3.39,23.2c-0.32,5.87-2.42,13.47-8.54,15.61
		c-2.42,0.85-4.84,0.84-6.95-0.57c-2.62-1.75-3.16-5.74-6.53-6.81c-4.21-1.34-7.4,2.52-9.16,5.77c-0.87,1.6-1.66,3.27-3.08,4.48
		c-1.12,0.95-2.48,1.48-3.9,1.79c-3.45,0.74-6.99-0.33-10.3-1.23c-3.85-1.05-7.75-1.94-11.77-1.56c-3.74,0.35-7.33,1.46-10.62,3.27
		c-0.35,0.19-0.69,0.4-1.02,0.6c4.11-6.01,6.7-13.04,8.96-19.89c3.19-9.67,6.04-20.45,3.16-30.55c-0.36-1.27-0.69-2.82-1.86-3.57
		c-0.22-0.14-0.47-0.26-0.71-0.39c-1.16-0.63-2.31-1.26-3.47-1.89c-1.98-1.08-3.95-2.16-5.93-3.24c-0.25-0.13-0.49-0.21-0.72-0.26
		c-0.75-0.22-1.59-0.08-2.31,0.65c-1.53,1.56-3.16,2.57-5.4,2.6c-2.4,0.03-4.76-0.58-7.14-0.85c-4.93-0.55-9.31,1.27-13.6,3.49
		c-1.83,0.95-3.65,2.05-5.59,2.74c-1.62,0.58-2.84,0.74-4.56,0.63c-2.93-0.18-6.12-1.64-8.83-3.23
		c-6.76-3.97-12.48-9.46-19.04-13.72c-2.1-1.37-4.32-2.54-6.62-3.47c7.35-2.62,13.97-7.22,19.45-12.93c0.03,0,0.06,0,0.09-0.01
		c14.46-2.2,28.01,4.84,42.1,6.66c7.45,0.96,14.68,0.03,21.58-2.98c6.37-2.77,11.96-7.2,16.07-12.8c3.5-4.78,6.56-11.55,12.51-13.72
		c0.8-0.29,1.44-0.9,1.7-1.65c1.76,0.77,3.44,1.72,5,2.91c3.09,2.37,5.66,5.38,8.25,8.27c2.62,2.91,5.33,5.75,8.59,7.97
		c3.74,2.55,8.18,3.96,12.7,4.06c1.97,0.05,3.93-0.15,5.86-0.53c0.08,2.98-0.12,5.97-0.91,8.87c-1.01,3.72-3.11,6.64-5.45,9.62
		c-2.46,3.13-4.61,6.36-5.47,10.31C606.26,466.81,606.55,470.97,607.19,475.07z M431.25,444.3c-1.23-0.33-2.45-0.74-3.63-1.25
		c-1.96-0.85-2.2-2.52-2.37-4.45C427.08,440.66,429.06,442.6,431.25,444.3z M418.76,430.28c-0.95,1.12-2.03,2.17-3.29,2.9
		c-1.81,1.05-3.93,1.09-5.94,0.71c-4.49-0.85-8.97-2.4-13.31-3.8c-8.35-2.69-16.58-6.23-23.28-11.99c3.39-0.38,6.72-1.37,9.69-3.03
		c3.48-1.95,6.82-5.16,7.63-9.06c2.09,0.59,4.09,1.35,5.94,2.26c5.64,2.78,10.42,6.83,14.57,11.52
		C413.69,423.1,416.2,426.71,418.76,430.28z M319.7,325.24c0.35-1.3,3.48-12.78,7.14-15.55c1.62-1.23,3.52-1.82,5.41-1.82
		c2.72,0,5.41,1.23,7.17,3.56c2.99,3.95,2.21,9.6-1.74,12.59c-3.25,2.46-12.98,2.66-16.07,2.66c-0.39,0-0.68,0-0.83-0.01
		c-0.35-0.01-0.68-0.17-0.89-0.45C319.68,325.94,319.61,325.58,319.7,325.24z M313.93,425.65c-3.69-1.1-7.05-3.14-9.52-6.19
		c2.65-4.11,5.45-8.11,8.43-11.99c0.82-1.07,0.17-2.8-0.9-3.42c-1.29-0.75-2.6-0.18-3.42,0.9c-3.92,5.11-7.55,10.44-10.9,15.94
		c-0.44,0.37-0.89,0.71-1.36,1.05c-1.62-5.52-2.52-11.2-2.69-16.97c-0.06-1.92-2.07-3.08-3.76-2.16c-1.39,0.76-2.77,1.52-4.16,2.28
		c-0.75,0.41-1.61,1.03-2.48,1.47c-0.06-0.15-0.12-0.31-0.18-0.46c-0.26-0.68-0.5-1.36-0.74-2.04c-0.47-1.37-0.9-2.76-1.3-4.16
		c-0.77-2.75-1.38-5.55-1.85-8.37c-0.93-5.69-1.18-11.51-0.84-17.26c0.09-1.56,0.23-3.12,0.42-4.68c12.6-0.03,25.22,0.64,37.86-0.55
		c0.27,0.07,0.54,0.13,0.81,0.2c1,1.35,1.95,2.74,2.88,4.14c0.07,0.85,0.15,1.71,0.23,2.56c0.08,0.92,0.16,1.85,0.25,2.77
		c0.1,1.02,0.2,2.04,0.3,3.05c0.09,0.85,0.17,1.7,0.26,2.55c0.11,1.03,0.22,2.06,0.34,3.09c0.1,0.86,0.2,1.71,0.3,2.57
		c0.12,1.01,0.24,2.01,0.36,3.02c0.11,0.9,0.23,1.8,0.35,2.7c0.12,0.96,0.25,1.91,0.38,2.87c0.13,0.98,0.27,1.97,0.41,2.95
		c0.12,0.87,0.25,1.75,0.38,2.62c0.17,1.15,0.35,2.3,0.53,3.44c0.11,0.71,0.22,1.43,0.33,2.14c0.24,1.47,0.48,2.94,0.73,4.4
		c0.01,0.09,0.03,0.17,0.04,0.26c0.01,0.07,0.02,0.15,0.04,0.22c-0.01,0.3,0.05,0.59,0.16,0.86c0.2,0.8,0.77,1.3,1.46,1.51
		c0.06,0.02,0.12,0.05,0.19,0.06c0.02,0.01,0.04,0.02,0.06,0.02c0.11,0.03,0.21,0.03,0.32,0.04c0.04,0.01,0.07,0.01,0.11,0.01
		c0.1,0.01,0.2,0.03,0.31,0.02c0.2,0,0.4-0.02,0.6-0.08c0.21-0.06,0.39-0.14,0.57-0.24c0.01,0,0.02-0.01,0.03-0.01
		c0.02-0.01,0.04-0.03,0.06-0.05c0.02-0.01,0.04-0.03,0.06-0.04c0.02-0.01,0.04-0.03,0.06-0.04c0.09-0.06,0.17-0.13,0.25-0.2
		c0.04-0.03,0.07-0.06,0.11-0.1c0.02-0.02,0.04-0.05,0.06-0.07c0.03-0.03,0.05-0.06,0.07-0.09c0.08-0.1,0.16-0.2,0.23-0.31
		c0,0,0-0.01,0.01-0.01c0.85-1.37,1.93-2.26,3.29-2.47c0.02,0,0.05-0.01,0.07-0.01c0.15-0.02,0.3-0.03,0.45-0.03
		c0.12,0,0.24,0,0.36,0.01c0.15,0.01,0.29,0.01,0.44,0.03c0.02,0,0.04,0,0.07,0.01c0.13,0.02,0.25,0.04,0.38,0.07
		c0.16,0.03,0.31,0.06,0.46,0.1c0.01,0,0.02,0,0.03,0c0.02,0,0.04,0.01,0.06,0.02c0,0,0,0,0,0c0.25,0.07,0.5,0.15,0.75,0.23
		c0.44,0.16,0.88,0.35,1.31,0.56c-0.09,0.21-0.18,0.43-0.27,0.64c-0.03,0.08-0.07,0.16-0.1,0.23c-2.3,5-6.05,9.19-11.34,10.71
		c-0.04,0.01-0.08,0.02-0.11,0.03c-0.35,0.1-0.71,0.18-1.07,0.25c-0.11,0.02-0.22,0.05-0.34,0.07c-0.43,0.08-0.86,0.14-1.31,0.18
		c-2.16,0.21-4.38,0.13-6.54-0.23c-0.22-0.04-0.43-0.08-0.64-0.12c-0.14-0.03-0.28-0.06-0.42-0.09c-0.25-0.05-0.5-0.11-0.75-0.17
		c-0.32-0.08-0.64-0.16-0.96-0.25C313.96,425.66,313.94,425.65,313.93,425.65z M385.78,510.7c-2.73,2.38-5.58,4.82-8.68,6.7
		c-2.62,1.58-5.4,2.22-7.87,0.03c-2.38-2.11-3.89-5.01-5.48-7.72c-1.73-2.94-3.74-5.82-6.54-7.84c-1.36-0.99-2.93-1.62-4.61-1.82
		c-1.85-0.21-3.56,0.34-5.31,0.86c-0.7,0.21-1.42,0.43-2.16,0.35c0.01-0.02-0.47-0.14-0.48-0.12c-0.09-0.04-0.47-0.24-0.63-0.35
		c-0.27-0.18-0.63-0.52-0.98-0.91c-0.42-0.46-0.73-0.94-1.07-1.5c-1.53-2.46-2.56-5.19-4.04-7.67c-3.66-6.15-9.81-9.66-16.13-12.53
		c1.86-16.04-0.45-32.49-7.16-47.2c6.09,1.31,12.92,0.87,18.22-2.51c0.79-0.5,1.53-1.07,2.23-1.67c0.82-0.67,1.59-1.41,2.31-2.22
		c0.15-0.17,0.29-0.35,0.44-0.53c0.07-0.08,0.14-0.16,0.2-0.25c0.44-0.55,0.87-1.1,1.27-1.68c0,0,0,0,0,0
		c0.39-0.57,0.76-1.15,1.11-1.75c0.07-0.12,0.14-0.23,0.2-0.35c0.51-0.9,0.98-1.82,1.41-2.77c0,0,0,0,0,0
		c0.4,0.35,0.8,0.69,1.17,1.06c0.01,0.01,0.01,0.01,0.02,0.02c2.25,2.22,4.05,4.83,5.72,7.53c0.45,0.74,0.91,1.48,1.35,2.23
		c1.36,2.28,2.68,4.57,3.98,6.88c0.11,0.19,0.22,0.38,0.33,0.57c4.17,7.41,8.1,14.96,12.02,22.51
		c8.06,15.57,16.02,31.38,25.79,45.98C390.38,506.43,388.14,508.63,385.78,510.7z M533.82,498.61c1.14-2.16,2.1-4.44,2.82-6.77
		c0.69-2.23,1.45-4.81,1.38-7.16c-0.07-2.48-1.5-4.55-3.97-5.15c-2.11-0.51-4.39,0.06-6.31,0.95c-3.97,1.84-6.84,5.64-9.16,9.21
		c-2.52,3.87-4.56,8.03-6.23,12.33c-1.9,4.91-3.21,10.02-3.98,15.23c-0.03,0.22-0.04,0.44-0.03,0.66c-2.54-0.81-5.25-0.99-7.84-0.15
		c-1.69,0.55-3.18,1.48-4.35,2.71c-3.35-5.94-7.48-11.87-13.87-14.44c-7.13-2.87-14.08,2.06-16.76,8.67
		c-0.97,2.39-1.24,5.1-0.62,7.59c-1.98-0.23-3.99-0.97-5.89-1.85c-3.43-1.6-6.69-3.55-10.24-4.88c-3.33-1.25-7.07-1.72-10.45-0.37
		c-3.81,1.52-6.49,4.73-8.16,8.41c-1.52,3.36-2.42,6.91-3.08,10.52c-11.81-8.17-21.24-19.16-29.31-31.04
		c-0.02-0.04-0.04-0.09-0.07-0.13c-2.5-3.69-4.88-7.46-7.18-11.27c-0.1-0.17-0.2-0.34-0.3-0.51c-0.38-0.64-0.76-1.29-1.14-1.93
		c-0.45-0.78-0.91-1.55-1.36-2.33c-10.62-18.43-19.56-37.78-30.13-56.24c-0.14-0.24-0.28-0.48-0.42-0.73
		c-0.64-1.12-1.29-2.23-1.95-3.35c-0.22-0.37-0.43-0.74-0.65-1.1c-0.21-0.35-0.41-0.69-0.62-1.04c-0.19-0.32-0.4-0.64-0.59-0.96
		c-0.39-0.64-0.77-1.28-1.16-1.91c-1.46-2.32-3.18-4.48-5.12-6.42c-1.41-1.45-2.96-2.75-4.67-3.87c-0.07-0.05-0.14-0.1-0.21-0.15
		c-0.01,0-0.01-0.01-0.02-0.01c-0.29-0.19-0.59-0.37-0.89-0.55c0,0,0,0,0,0c0,0,0,0,0,0c-0.06-0.03-0.12-0.06-0.17-0.09
		c-0.06-0.03-0.12-0.08-0.18-0.11c-0.19-0.1-0.38-0.2-0.57-0.3c-0.04-0.02-0.08-0.04-0.12-0.06c-0.26-0.13-0.53-0.26-0.79-0.38
		c-0.02-0.01-0.04-0.02-0.06-0.03c-0.05-0.02-0.09-0.05-0.14-0.07c-0.07-0.03-0.13-0.06-0.2-0.09c0,0,0,0-0.01,0
		c-1.54-0.65-3.18-1.07-4.83-1.07c-0.1,0-0.19-0.01-0.29,0c-0.04,0-0.08,0.01-0.12,0.01c-0.02,0-0.04-0.01-0.06-0.01
		c-0.04,0-0.08,0.01-0.13,0.01c-0.04,0-0.08,0-0.13,0c-0.06,0-0.12,0.02-0.18,0.03c-0.13,0.01-0.26,0.02-0.38,0.04
		c-0.01,0-0.03,0-0.04,0c-0.02,0-0.04,0.01-0.05,0.01c-0.1,0.01-0.19,0.03-0.29,0.04c-0.09,0.01-0.17,0.01-0.26,0.03
		c-0.27,0.04-0.53,0.1-0.79,0.18c-0.01,0-0.02,0.01-0.03,0.01c0,0,0,0,0,0c-0.12,0.04-0.24,0.08-0.36,0.12
		c-0.06,0.02-0.12,0.04-0.17,0.07c-0.26,0.1-0.51,0.21-0.76,0.32c-0.02,0.01-0.03,0.03-0.05,0.04c-0.05,0.03-0.11,0.04-0.16,0.07
		c-0.1,0.05-0.19,0.1-0.28,0.15c-0.05-0.32-0.11-0.64-0.16-0.97c-0.11-0.67-0.21-1.33-0.31-2c-0.18-1.15-0.36-2.29-0.53-3.44
		c-0.12-0.81-0.23-1.61-0.35-2.42c-0.14-1-0.29-2.01-0.42-3.01c-0.12-0.88-0.23-1.75-0.35-2.63c-0.12-0.93-0.24-1.86-0.36-2.8
		c-0.11-0.92-0.22-1.84-0.33-2.76c-0.11-0.9-0.21-1.79-0.31-2.69c-0.1-0.94-0.21-1.88-0.31-2.81c-0.03-0.3-0.06-0.6-0.09-0.9
		c5.98,10.06,12.09,20.33,21.44,27.27c0.28,0.21,0.57,0.42,0.85,0.63c0.35,0.25,0.7,0.49,1.06,0.73c0.65,0.43,1.31,0.84,1.98,1.23
		c0.11,0.07,0.22,0.14,0.33,0.2c0.19,0.11,0.38,0.2,0.57,0.31c0.33,0.18,0.66,0.36,0.99,0.53c0.12,0.06,0.24,0.13,0.37,0.19
		c3.73,1.89,7.76,3.22,11.89,3.8c5.92,6.32,13.28,10.78,21.27,14.06c4,1.64,8.12,2.97,12.26,4.21c4.15,1.24,8.61,2.99,13,2.87
		c3.14-0.08,5.68-1.32,7.86-3.14c0.08,0.93,0.16,1.86,0.24,2.79c0.23,2.52,0.63,5.16,2.5,7.03c1.75,1.75,4.46,2.54,6.78,3.2
		c2.7,0.78,5.49,1.2,8.28,1.46c2.59,0.24,5.19,0.3,7.79,0.35c1.24,0.03,2.44,0.19,3.67,0.28c1.35,0.1,2.69-0.01,4.03,0.02
		c4.74,0.11,9.64,1.67,13.72,4.03c7.07,4.09,12.96,9.89,19.86,14.24c3.13,1.97,6.59,3.76,10.26,4.42c4.13,0.74,7.76-0.07,11.48-1.9
		c4.74-2.32,9.17-5.33,14.68-4.66c2.73,0.33,5.43,1.05,8.2,0.79c2.49-0.24,4.61-1.22,6.47-2.73c2.57,1.4,5.14,2.81,7.71,4.21
		c2.3,7.18,1.19,14.8-0.74,21.97c-1.84,6.86-4.13,13.8-7.35,20.15c-1.37,2.7-2.91,5.38-4.87,7.7c-1.67,1.98-3.63,3.8-5.88,4.73
		c-2.29,0.94-4.66,0.88-7.14-0.12c-2.59-1.04-4.86-2.72-7.27-4.12c0.39-0.31,0.67-0.72,0.74-1.22c1.13-7.68,3.44-15.18,7.13-22.02
		c1.69-3.13,3.58-6.28,6.05-8.86c1.12-1.16,2.39-2.29,3.9-2.91c0.52-0.21,2.46-0.77,2.74-0.38c0.28,0.39-0.12,1.69-0.2,2.12
		c-0.21,1.12-0.48,2.23-0.79,3.32c-0.62,2.17-1.45,4.24-2.51,6.23C528,498.93,532.32,501.46,533.82,498.61z M732.76,525.26
		c-3.39,6.25-8.33,15.24-16.47,15.46c-1.25,0.03-2.48-0.1-3.7-0.33c4.96-5.11,5.34-13.37,5.07-20.16
		c-0.18-4.63-0.41-9.22,0.17-13.84c0.24-1.96,0.57-3.96,1.18-5.84c0.37-1.13,0.97-2.55,1.89-3.12c0.03-0.02,0.16-0.14,0.43-0.1
		c0.15,0.03,0.41,0.18,0.59,0.32c0.59,0.47,0.99,1.24,1.23,1.95c0.74,2.21,0.44,4.69,0.25,6.97c-0.11,1.35,1.23,2.5,2.5,2.5
		c1.44,0,2.39-1.15,2.5-2.5c0.38-4.58,0.42-10.03-3.7-13.05c-3.87-2.84-8.06-0.04-9.75,3.75c-1.91,4.31-2.35,9.4-2.49,14.06
		c-0.16,5.14,0.54,10.27,0.19,15.4c-0.27,3.89-1.36,8.91-4.85,11.23c-0.36,0.24-0.62,0.53-0.81,0.85c-1.43-0.48-2.85-0.97-4.27-1.37
		c-3.69-1.04-7.72-1.47-11.48-0.49c-1.89,0.49-3.62,1.39-5.13,2.61c-1.65,1.33-2.5,3.11-3.78,4.72c-0.43,0.54-0.79,0.76-1.1,0.83
		c-0.52,0.11-0.17,0.02-0.07,0.01c-0.13,0.01-0.28,0.01-0.41-0.01c0-0.02-0.7-0.19-0.81-0.23c-1.1-0.37-2.58-1.37-3.79-2.11
		c-3.35-2.04-6.92-3.51-10.73-1.72c-3.96,1.86-6.17,6.15-7.77,9.99c-1.59,3.8-2.81,7.96-6.02,10.75c-2.7,2.34-6.45,3.25-9.9,3.73
		c-9.9,1.37-20.25,0.7-29.99-1.41c-16.48-3.57-33.28-11.5-50.38-9.4l16.84-13.78c1.23-1.01,2.46-2.01,3.69-3.02
		c0.81-0.66,0.95-2.18,0.39-3.03c-2.52-3.84-5.94-8.55-11.17-7.93c-2.51,0.3-4.37,1.94-5.94,3.8c-1.56,1.85-3.09,3.73-4.59,5.63
		c-3.16,4-6.14,8.14-8.5,12.67c-1.99,3.83-3.49,8-6.13,11.46c-1.45,1.89-2.88,3.7-4.17,5.72c-0.67,1.05-1.35,2.11-2.23,2.96
		c-8.24-10.06-15.5-20.89-21.81-32.25c5.49-2.51,10.98-5.01,16.47-7.52c1.81-0.83,2.95-2.49,4.49-3.75
		c2.65-2.18,5.84-3.74,9.17-4.53c3.6-0.85,7.14-0.54,10.7,0.36c3.9,0.99,7.83,2.36,11.91,2.22c3.59-0.12,7.16-1.3,9.77-3.84
		c1.5-1.46,2.47-3.3,3.46-5.12c0.66-1.21,1.48-3.04,2.93-3.49c0.93-0.29,1.62,1.53,2.08,2.27c0.94,1.54,2.12,2.83,3.59,3.87
		c2.61,1.83,5.89,2.27,8.98,1.77c7.16-1.16,11.61-7.58,13.29-14.18c2.01-7.88,0.7-15.84-1.04-23.63c-1.67-7.5-3.76-15.91,0.71-22.85
		c2.06-3.2,4.84-5.89,6.61-9.29c1.97-3.78,2.86-7.98,3.07-12.22c0.07-1.51,0.05-3.02-0.03-4.53c1.64-0.6,3.24-1.3,4.77-2.1
		c3.15-1.64,6.01-3.73,8.82-5.89c3.3,2.87,6.59,5.75,9.89,8.62c1.92,1.67,3.79,3.41,5.77,5.01c1.84,1.49,3.81,2.5,6.25,2.23
		c2.58-0.29,5.11-1.4,7.57-2.2c2.43-0.79,4.86-1.58,7.3-2.37c4.86-1.58,9.73-3.16,14.59-4.74c1.59-0.52,3.04-1.12,4.42-0.47
		c2.92,3.36,5.84,6.72,8.76,10.09c0.36,0.41,0.72,0.83,1.08,1.24c0.82,1.12,1.62,2.25,2.38,3.42c2.24,3.47,4.13,7.15,5.32,11.11
		c1.15,3.82,1.36,7.69,1.77,11.63c0.43,4.12,1.15,8.7,4.28,11.72c1.73,1.67,3.94,2.56,6.29,2.9c2.27,0.33,4.6,0.23,6.84,0.76
		c6.5,1.76,9.61,9.89,10.07,16.11C740.75,508.67,737.01,517.44,732.76,525.26z M745.1,520.68l-5.45,2.11
		c3.05-6.42,5.3-13.24,5.5-20.37c0.21-7.84-2.6-16.66-9.08-21.49c-1.41-1.05-3.03-1.82-4.73-2.28c-2.03-0.48-4.11-0.55-6.18-0.71
		c-1.64-0.13-3.36-0.42-4.63-1.55c-2.35-2.09-2.7-5.91-2.99-8.86c-0.4-4.05-0.64-8.08-1.78-12.01c-1.17-4.05-3-7.92-5.2-11.51
		c-2.15-3.52-4.67-6.8-7.29-9.98c-0.26-0.32-0.53-0.62-0.8-0.94c-0.22-0.27-0.44-0.54-0.67-0.81c-1.39-1.64-2.75-3.42-4.38-4.86
		c-0.16-0.14-0.31-0.27-0.47-0.4c-0.08-0.06-0.16-0.12-0.24-0.18c-0.11-0.08-0.22-0.17-0.33-0.25c-0.19-0.17-0.4-0.31-0.63-0.4
		c-0.46-0.26-0.94-0.49-1.46-0.65c-2.42-0.78-4.91,0.13-7.21,0.87c-2.43,0.79-4.86,1.58-7.3,2.37c-4.86,1.58-9.73,3.16-14.59,4.74
		c-1.33,0.43-2.67,0.87-4,1.3c-0.98,0.32-2.2,0.88-3.24,0.54c-0.89-0.28-1.67-1.08-2.35-1.68c-1.06-0.92-2.11-1.84-3.17-2.76
		c-3.63-3.16-7.25-6.32-10.88-9.48c0.03-0.02,0.06-0.04,0.08-0.06c4.19-3.16,8.61-5.9,13.55-7.72c0.99-0.36,1.98-0.69,2.99-1
		c0,0,0.01,0,0.01,0c4.95-1.49,10.04-2.37,15.17-2.73c0.09-0.01,0.17-0.01,0.26-0.02c0.46-0.03,0.92-0.05,1.38-0.07
		c0.38-0.02,0.77-0.04,1.15-0.05c0.11,0,0.22-0.01,0.33-0.01c5.46-0.15,10.92,0.24,16.32,1.04c6.29,8.06,12.58,16.13,18.87,24.19
		c0.83,1.07,2.66,0.87,3.54,0c1.05-1.05,0.83-2.47,0-3.54c-5.02-6.43-10.04-12.87-15.06-19.3c0.96,0.21,1.93,0.43,2.88,0.66
		c5.19,1.25,10.31,2.81,15.36,4.54c2.56,8.73,5.63,17.14,10.66,24.8c2.57,3.91,5.61,7.45,8.67,10.98c0.64,0.74,1.13,1.37,2.09,1.73
		c0.42,0.15,0.85,0.29,1.27,0.43c0.66,0.22,1.31,0.45,1.97,0.67c0.46,0.5,0.91,0.99,1.37,1.49c1.23,1.72,2.36,3.54,3.3,5.53
		c2.2,4.63,3.28,9.93,3.84,15.22C753.07,492.7,750.79,507.75,745.1,520.68z M746.7,452.58c-1.2-1.31-3.16-1.79-4.89-2.32
		c-2.14-2.47-4.33-4.89-6.28-7.51c-1.94-2.62-3.69-5.38-5.25-8.25c-2.6-4.78-4.44-9.8-6.03-14.95c0.63,0.18,1.26,0.38,1.88,0.59
		c4.22,3.65,9.12,6.31,14.73,6.96c5.6,0.65,11.24-0.75,16.08-3.59c0.35-0.21,0.69-0.42,1.03-0.63c0.38,4.83,2.69,9.19,4.95,13.43
		c2.66,4.98,5.32,9.95,7.98,14.93c-0.78,1.76-1.08,3.75-1.04,5.78c0.05,2.88,0.95,6.52-0.58,9.15c-1.15,1.97-3.58,2.67-5.5,2.22
		c-3.14-0.74-5.57-3.38-7.7-5.64C752.92,459.38,749.83,455.97,746.7,452.58z M805.22,437.21c-3.78-0.85-7.5-0.97-11.29-0.12
		c-3.76,0.84-7.34,2.51-10.68,4.39c-3.02,1.69-6.11,3.53-8.88,5.65c-2.22-4.16-4.44-8.31-6.66-12.47
		c-2.25-4.21-4.89-8.54-4.79-13.47c0.01-0.32-0.05-0.59-0.13-0.85c0.02-0.01,0.04-0.03,0.07-0.04c0.47-0.05,0.95-0.25,1.39-0.64
		c2.35-2.08,5.59-2.63,8.62-2.8c3.22-0.18,6.42,0.11,9.56,0.85c6.65,1.55,12.74,4.82,18.2,8.86c3.24,2.4,6.22,5.14,9.01,8.04
		c0.89,0.92,1.98,0.91,2.84,0.42c0.23,1.15,0.5,2.28,0.82,3.41C810.61,438.68,807.9,437.81,805.22,437.21z M821.19,392.08
		c-0.86,4.43-2.5,8.59-4.17,12.75c-4.35,0.1-8.65-0.48-12.82-1.77c-0.59-0.18-1.18-0.38-1.76-0.59c-0.19-0.07-0.39-0.14-0.58-0.21
		c-0.02-0.02-0.14-0.08-0.25-0.14c0.32-0.27,0.66-0.7,0.92-0.93c0.36-0.31,0.73-0.6,1.12-0.88c0.96-0.69,1.97-1.3,3.03-1.84
		c1.2-0.62,1.55-2.3,0.9-3.42c-0.71-1.22-2.22-1.52-3.42-0.9c-1.31,0.67-2.54,1.46-3.71,2.35c-1.18,0.9-2.47,1.85-3.32,3.09
		c-0.96,1.39-1.09,3.2-0.27,4.69c0.72,1.31,1.99,2.11,3.33,2.65c4.67,1.88,9.8,2.81,14.87,2.89c-0.71,1.9-1.37,3.81-1.9,5.77
		c-1.23,4.56-1.7,9.33-1.38,14.04c-10.16-10.06-23.71-18.42-38.43-17.81c0.22-0.26,0.43-0.53,0.65-0.79
		c0.02-0.02,0.03-0.04,0.05-0.06c0.5-0.62,0.99-1.25,1.45-1.91c2.4-3.44,4.1-7.29,5.63-11.18c0.2-0.51,0.4-1.03,0.6-1.56
		c0.15-0.33,0.3-0.65,0.47-0.96c0.88-1.58,1.78-3.14,2.61-4.76c1.25-2.46,2.39-4.98,3.46-7.53c6.79,2.46,13.88,4.28,21.14,4.34
		c2.98,0.03,6.27-0.74,9.12-0.37c0.95,0.12,1.82,0.37,2.38,1.1C821.61,389.09,821.41,390.87,821.19,392.08z"/>
	<path d="M520.52,363.82c19.68,2.32,39.54,2.05,59.16-0.64c1.34-0.18,2.07-1.9,1.75-3.08c-0.4-1.44-1.73-1.93-3.08-1.75
		c-19.15,2.63-38.64,2.73-57.83,0.46c-1.34-0.16-2.5,1.26-2.5,2.5C518.02,362.81,519.17,363.66,520.52,363.82z"/>
	<path d="M595.91,361.01c3.22,0,3.22-5,0-5C592.69,356.01,592.68,361.01,595.91,361.01z"/>
	<path d="M619.56,359.89c3.22,0,3.22-5,0-5C616.34,354.89,616.33,359.89,619.56,359.89z"/>
	<path d="M424.53,419.33c4.92,3.47,7.36,9.35,11.75,13.34c4.45,4.05,11.11,6.72,16.75,3.45c2.78-1.61,0.27-5.94-2.52-4.32
		c-4.31,2.5-9.44-1.09-12.27-4.28c-3.75-4.23-6.48-9.19-11.19-12.52c-1.1-0.78-2.78-0.2-3.42,0.9
		C422.91,417.16,423.43,418.54,424.53,419.33z"/>
	<path d="M528.63,434.46c5.42,2,11.4,0.99,16.52-1.42c5.25-2.47,9.58-6.55,13.76-10.47c2.35-2.21-1.19-5.74-3.54-3.54
		c-6.67,6.26-15.5,14.26-25.41,10.61c-1.27-0.47-2.74,0.52-3.08,1.75C526.5,432.78,527.35,433.99,528.63,434.46z"/>
	<path d="M611.92,422.17c7.39,2.81,15.2-0.63,21.29-4.82c3.11-2.14,6.08-4.51,9.31-6.47c3.1-1.88,6.39-3.45,9.82-4.64
		c3.97-1.37,8.09-2.3,12.28-2.69c1.34-0.13,2.5-1.06,2.5-2.5c0-1.25-1.15-2.63-2.5-2.5c-7.48,0.7-14.72,2.76-21.39,6.21
		c-3.35,1.73-6.41,3.86-9.45,6.08c-2.96,2.15-5.98,4.4-9.37,5.84c-3.56,1.52-7.48,2.07-11.16,0.68c-1.26-0.48-2.74,0.53-3.08,1.75
		C609.78,420.5,610.65,421.69,611.92,422.17z"/>
	<path d="M350.04,399.36c1.08,0.82,2.8,0.17,3.42-0.9c0.75-1.28,0.18-2.6-0.9-3.42c-5.58-4.23-10.18-9.93-13.35-16.36
		c-0.6-1.21-2.31-1.54-3.42-0.9c-1.23,0.72-1.5,2.21-0.9,3.42C338.44,388.38,343.68,394.53,350.04,399.36z"/>
	<path d="M737.28,413.7c3.71,1.18,7.55,2.31,11.48,2.35c3.87,0.04,7.48-1.18,10.48-3.63c2.57-2.09,4.46-4.96,6.08-7.82
		c1.97-3.49,3.78-7.08,5.66-10.63c2.28-4.31,4.55-8.61,6.83-12.92c1.5-2.84-2.81-5.37-4.32-2.52c-2.39,4.53-4.78,9.05-7.18,13.58
		c-2.11,4-4.08,8.14-6.5,11.97c-1.99,3.15-4.54,5.91-8.31,6.73c-4.28,0.93-8.86-0.64-12.89-1.93
		C735.53,407.9,734.22,412.72,737.28,413.7z"/>
</g>
</svg>
