<?xml version="1.0" encoding="utf-8"?>
<!-- Generator: Adobe Illustrator 26.3.1, SVG Export Plug-In . SVG Version: 6.00 Build 0)  -->
<svg version="1.1" id="Capa_1" xmlns="http://www.w3.org/2000/svg" xmlns:xlink="http://www.w3.org/1999/xlink" x="0px" y="0px"
	 viewBox="0 0 579.89 339.1" style="enable-background:new 0 0 579.89 339.1;" xml:space="preserve">
<g>
	<g>
		<g>
			<g>
				<path d="M58.85,50.9c-0.48,6.81-1.58,13.78-1.58,20.63c0,1.57,0.48,3.61,1.9,3.89C62.18,76,69.55,61.67,81.82,63.45
					c16.4,2.37,22.6,24.29,21.22,38.96c-2.95,31.45-25.58,44.11-57.18,39.13c-13.74-2.17-28.67-9.93-29.14-25.09
					c-0.22-7.03,2.37-17.11,3.64-24.43c2.26-13.02,3.95-26.7,3.96-39.93c0-4.79,0-6.5-4.75-7.67c-4.75-1.17-6.65-1.85-6.65-7.39
					c0-6.81,6.26-8.5,11.72-10.37c6.45-2.21,20.59-6.42,27.4-6.42c9.66,0,8.55,6.21,7.92,17.72C59.52,43.19,59.3,45.78,58.85,50.9z
					 M50.94,124.87c0.11,1.69,0.63,4.45,3.48,5.04c9.82,2.03,13.14-22.67,12.99-25.96c-0.16-3.48-1.65-12.11-4.43-11.78
					C55.94,93.01,50.34,115.96,50.94,124.87z"/>
			</g>
			<g>
				<path d="M199.66,117.91c-0.48,2.33-0.95,4.73-0.95,6.83c0,3.08,1.79,3.76,4.91,3.27c3.57-0.56,6.03-0.31,5.54,2.61
					c-1.97,11.93-23.84,17.1-36.11,17.59c-9.91,0.4-6.6-9.77-10.93-8.77c-9.12,2.09-21.62,9.1-33.42,8.62
					c-8.8-0.36-13.76-3.91-14.1-10.71c-0.29-5.87,3.33-12.84,4.59-26.3c0.48-5.07,1.53-9.71-3.64-10.73
					c-3.12-0.62-6.65-1.41-6.65-6.76c0-8.23,8.87-13.89,13.62-16.72c7.76-4.65,16.95-8.46,25.5-8.43c6.02,0.02,8.23,4.61,8.08,12.24
					c-0.24,12.08-2.68,24.52-4.59,36.67c-0.32,1.77-4.28,14.22,2.53,14.01c5.07-0.16,8.71-5.23,10.45-8.53
					c6.11-15.2,2.45-33.15,10.61-47.51c4.43-5.4,15.68-7.99,21.54-8.27c4.91-0.24,9.19,0.79,9.19,7.5c0,2.57-0.63,7.29-0.79,9.77
					C202.89,99.16,201.81,105.98,199.66,117.91z"/>
			</g>
			<g>
				<path d="M261.12,118.81c1.57,16.62-13.7,21.86-27.4,24.14c-5.8,0.96-12.47,0.59-12.2-4.61c0.7-13.33,6.07-27.42,6.65-41.5
					c0.19-4.54-0.32-5.9-4.59-5.03c-4.91,1-7.44,0.19-7.44-6.38c0-9.85,12.9-15.35,18.85-19.95c4.27-3.3,9.5-6.42,14.57-7.23
					c9.66-1.55,5.39,15.87,10.45,14.8c4.59-0.97,4.12-17.33,18.85-19.78c10.29-1.71,17.26,5.77,17.26,15.61
					c0,9.53-4.75,20.05-15.52,22.75c-5.7,1.43-7.92-0.23-10.61-4.27c-0.48-0.86-1.9-3.45-3.17-3.15c-2.22,0.53-3.17,7.61-3.33,9.1
					C262.54,104.02,262.07,109.01,261.12,118.81z"/>
			</g>
			<g>
				<path d="M364.39,100.56c10.77-1.94,19.93,3.07,19.96,18.89c0.04,25.73-22.02,42.42-46.25,42.38
					c-12.67-0.02-36.34-3.47-37.06-19.08c-0.27-5.9,4.43-7.79,4.43-10.16c0-2.2-5.86-3.93-5.86-12.1c0-7.35,5.38-13.56,11.56-17.61
					c1.58-1.02,3.48-1.8,3.48-3.94c0-1.65-0.79-1.79-1.9-2.5c-5.7-3.7-8.44-7.56-8.39-15.17c0.15-22.88,24.68-35.96,44.51-39.01
					c2.69-0.41,5.38-0.58,8.08-0.74c2.69-0.17,5.39-0.34,8.08-0.74c8.55-1.26,8.71-8.18,14.73-8.8c4.91-0.51,10.61,3.41,10.61,6.62
					c0,3.21-3.33,5.34-3.33,6.54c0,0.96,4.98,3.46,4.28,10.58c-2.24,22.65-24.34,36.53-44.98,40.77
					c-7.75,1.59-12.19,1.05-14.41,1.54c-2.06,0.45-3.64,2.5-3.64,4.73c0,6.17,10.29,3.45,13.78,2.76
					C350.99,103.46,355.45,102.46,364.39,100.56z M352.03,137.31c0-2.69-1.74-3.51-3.48-2.91c-12.35,3.59-25.18,0.91-28.19,1.58
					c-1.23,0.27-1.27,2.51-1.27,3.41c0,7.8,12.2,8.12,16.95,7.8C339.84,146.94,352.03,144.77,352.03,137.31z M355.83,56.77
					c0.44-3.1-0.79-5.12-4.91-4.34c-9.19,1.73-10.1,18.29-10.61,24.71c-0.29,3.62,0.95,5.71,5.07,4.8
					C354.09,80.01,354.99,62.65,355.83,56.77z"/>
			</g>
			<g>
				<path d="M480.48,50.41c-1.21,15.03-24.95,29.56-39.28,30.14c-2.13,0.09-6.18,0.04-6.18,4.25c0,5.82,5.7,9.16,9.66,9.22
					c11.4,0.16,20.11-11.08,25.18-10.71c3.33,0.24,6.33,4.98,6.34,9.12c0,10.98-10.63,17.55-17.1,21.37
					c-8.75,5.18-17.49,8.33-27.4,8.34c-20.42,0.01-36.33-17.39-35.32-37.55c1.62-32.52,30.58-49.14,60.98-47.97
					C469.87,37.11,481.2,41.49,480.48,50.41z M434.71,61.14c0,1.54,0.63,3.78,2.85,3.7c4.43-0.16,12.24-9.72,11.72-15.04
					c-0.14-1.44-1.11-3.44-3.64-3.48C439.15,46.21,434.71,57.04,434.71,61.14z"/>
			</g>
			<g>
				<path d="M531.96,101.46c1.91,18.38-11.07,24.17-27.4,23.32c-5.74-0.3-12.42-3.2-12.2-12.49c0.4-16.64,5.37-34.24,6.65-50.77
					c0.24-3.13-0.32-4.25-4.59-4.87c-4.91-0.72-7.44-1.98-7.44-5.99c0-6.01,12.87-6.1,18.85-7.43c4.26-0.95,9.5-1.65,14.57-0.9
					c9.66,1.43,5.38,12.44,10.45,13.64c4.59,1.08,4.12-11.63,18.85-8.53c10.29,2.17,17.26,12.85,17.26,22.83
					c0,9.66-4.75,16.41-15.52,11.94c-5.7-2.37-7.92-5.18-10.61-10.08c-0.48-0.99-1.9-3.91-3.17-4.3c-2.22-0.68-3.17,4.67-3.33,5.83
					C533.39,82.1,532.91,89.56,531.96,101.46z"/>
			</g>
		</g>
	</g>
	<g>
		<g>
			<g>
				<path d="M133.82,292.14c-0.02,5.08,0.28,7.84,4.22,11.09c2.36,1.95,6,4.07,5.98,7.93c-0.05,9.73-15.76,7.84-21.39,6.97
					c-11.83-1.82-33.71-6.52-35.4-18.23c-0.52-3.59,2.72-5.12,6.16-5.42c3.91-0.35,4.42-1.69,5.7-6c0.48-1.49,5.76-20.63,1.19-21.16
					c-3.94-0.46-11.18,15.02-28.71,12.09c-13.97-2.34-21.8-15.5-21.66-28.92c0.29-26.8,19.99-57.6,48.78-58.78
					c9.43-0.39,13.27,6.56,17.07,6.6c4.75,0.05,13.03-8.33,20.15-8.33c5.38,0,6.48,2.93,6.45,8.79
					C139.53,229.9,136.69,261.02,133.82,292.14z M109.18,216.68c0.09-3.08-1.92-6.89-4.4-6.45c-11.32,1.99-18.47,27.03-18.96,39.23
					c-0.11,2.77,1.62,7.84,4.08,7.4C100.11,255.01,108.81,229.84,109.18,216.68z"/>
			</g>
			<g>
				<path d="M242.04,249.22c-0.48,2.94-0.97,6.08-0.97,9.03c-0.01,4.33,1.82,5.87,4.91,6.03c3.56,0.18,5.77,0.35,5.55,5.46
					c-0.67,15.28-23.36,24.23-36.32,24.11c-9.72-0.09-6.92-18.73-10.9-17.86c-9.39,2.06-19.59,15.99-33.56,14.65
					c-8.61-0.82-13.99-8.59-14.01-20.48c-0.02-12.58,3.31-25.81,4.78-38.32c0.56-4.76,1.57-9.18-3.6-10.02
					c-3.12-0.5-6.65-1.14-6.62-5.95c0.04-7.4,8.93-12.63,13.7-15.21c7.78-4.23,16.99-7.64,25.54-7.62
					c6.02,0.01,8.22,4.03,8.03,10.99c-0.31,11.71-2.9,23.83-4.74,35.65c-0.33,2.48-4.38,21.29,2.45,21.62
					c5.08,0.25,8.76-7.32,10.52-11.91c4.82-15.64,2.02-35.58,10.8-49.68c4.45-4.85,15.7-6.79,21.57-6.79
					c4.91,0.01,9.18,1.78,9.17,8.49c-0.01,2.56-0.65,7.29-0.81,9.86C245.7,223.93,243.88,236.57,242.04,249.22z"/>
			</g>
			<g>
				<path d="M341.71,215.39c-0.59,19.63-17.9,42.87-39.31,42.88c-2.21,0-6.2,0.02-6.2,4.19c0,5.76,5.73,8.92,9.7,8.89
					c11.45-0.08,20.17-11.53,25.26-11.62c3.34-0.06,6.36,4.21,6.37,8.16c0.02,10.45-10.64,17.32-17.14,21.12
					c-8.79,5.15-17.57,8.13-27.53,8.2c-20.74,0.15-37.01-16.48-35.44-37.43c2.34-31.12,26.6-67.54,61.1-67.81
					C331.8,191.86,342.12,201.79,341.71,215.39z M295.89,236.44c0,2.38,0.64,5.56,2.86,5.55c4.45-0.01,12.27-14.79,11.73-24.25
					c-0.15-2.56-1.12-6.15-3.65-6.14C300.32,211.62,295.89,230.09,295.89,236.44z"/>
			</g>
			<g>
				<path d="M431.26,213.92c-0.54,19.57-18.57,41.18-39.12,42.07c-2.21,0.1-6.19,0.28-6.17,4.32c0.02,5.59,5.75,8.37,9.72,8.14
					c11.42-0.65,20.09-11.99,25.16-12.3c3.33-0.2,6.36,3.7,6.38,7.43c0.05,9.88-10.56,16.99-17.03,21.02
					c-8.76,5.46-17.52,8.91-27.43,9.65c-20.5,1.53-37.08-14.02-35.55-34.89c2.28-31.2,26.29-67.2,60.81-67.49
					C420.69,191.77,431.63,200.45,431.26,213.92z M385.55,235.08c0.01,2.31,0.66,5.38,2.88,5.3c4.44-0.15,12.2-14.61,11.63-23.7
					c-0.15-2.46-1.14-5.9-3.67-5.86C389.89,210.93,385.53,228.91,385.55,235.08z"/>
			</g>
			<g>
				<path d="M497.63,225.7c-0.01-3.06-1.83-5.67-4.45-5.22c-12.28,2.08-13.75,26.72-14.39,37.98c-0.96,17.08-8.56,25.49-25.32,28.24
					c-5.62,0.92-11.84-0.46-11.6-8.25c0.53-17.18,6.64-35.02,6.55-52.95c-0.02-3.64-1.14-5.79-4.46-5.68
					c-0.63,0.02-0.95,0.03-1.58,0.05c-3.17,0.1-4.45-2.07-4.46-5.75c-0.03-5.16,4.55-8.93,8.02-11.17
					c6.63-4.66,21.17-10.12,28.77-10.15c9.66-0.04,6.62,16.15,10.36,15.22c9.2-2.28,18.27-14.99,30.66-15.57
					c8.79-0.41,18.3,5.59,18.05,15.34c-0.34,13.41-5.1,27.41-5.5,40.74c-0.19,6.23,8.19,2.24,7.55,7.65
					c-1.45,12.19-20.71,21.53-32.67,23.79c-6.64,1.26-11.35-2.08-11.38-9.81c-0.03-8.76,2.77-20.21,4-29.18
					C496.52,234.85,496.89,231.8,497.63,225.7z"/>
			</g>
		</g>
	</g>
</g>
</svg>
